/* XPM */
static char *Enemy_idle1703852371[] = {
/* columns rows colors chars-per-pixel */
"64 95 3 1 ",
"  c None",
". c black",
"X c white",
/* pixels */
"                                                                ",
"                                                                ",
"                                                                ",
"                                                                ",
"                                                                ",
"                                                                ",
"                           ............                         ",
"                           ............                         ",
"                           ............                         ",
"                         ..XXXXXXXXXXXX....                     ",
"                         ..XXXXXXXXXXXX....                     ",
"                        ...XXXXXXXXXXXXXXXX..                   ",
"                     ...X..XXXXXXXXXXXXXXXXXX.                  ",
"                     ...X..XXXXXXXXXXXXXXXXXX.                  ",
"                     ...X..XXXXXXXXXXXXXXXXXX.                  ",
"                     ...X..XXXXXXXXXXXXXXXXXX.                  ",
"                   ..XXXX..XXXXXXXXXX...XXXXX.                  ",
"                   ..XXX.XXXXXXXXX.........XXX..                ",
"                   ..XXX.XXXXXXXXX.........XXX..                ",
"                  .XXXXX.XXXXXX..X...........X..                ",
"                  .XXXXX.XXXXXX..X...........X..                ",
"                  .XXXXX.XXXXXX..X...........X..                ",
"                  .XXXXX...XXXX..X...........X..                ",
"                  .XXXXXX..XXX...X...........X..                ",
"                  .XXXXXX..XXX...X...........X..                ",
"                  .XX...X........X...........X..                ",
"                  .XX............XXXX......XXX..                ",
"                  .XX............XXXX......XXX..                ",
"                  .XX............XXXX......XXX..                ",
"                  .XXXXX.......XXXXXXXX.XXXXXX..                ",
"                  .XXXXX.......XXXXXXXX.XXXXXX..                ",
"                  .XXXXXX.....XXXXXXXXX.XXXXXX..                ",
"                   ..XXXXXXXXXXXXXXXXXX.XXXXXX..                ",
"                   ..XXXX..XXXXXXXXXXXX....XXX..                ",
"                   ..XXXX..XXXXXXXXXXXX....XXX..                ",
"                   ..XXXX..XXXXXXXXXXXX....XXX..                ",
"                   ..XXXX.....XXXXXXXXX....XX.                  ",
"                     ...XXX....XXX......XXXXX.                  ",
"                     ...XXX....XXX......XXXXX.                  ",
"                     ...XXXXXX.........XXXX..                   ",
"                     ...XXXXXX.........XXXX..                   ",
"                     ...XXXXXX.........XXXX..                   ",
"                        .XXXXXX........XXXX..                   ",
"                     ....XXXXXXXX....XXX...                     ",
"                     ....XXXXXXXX....XXX...                     ",
"                   ........XXXXXXXXXXXX......                   ",
"                   ..........................                   ",
"                   ..........................                   ",
"                   ..........................                   ",
"                  ............XXXXXXXXX.......                  ",
"                  ............XXXXXXXXX.......                  ",
"                  ............XXXXXXXXX.........                ",
"                  ............XXXXXXXXX.........                ",
"                  ............XXXXXXXXX.........                ",
"                  ............XXXXXXXXX.........                ",
"                  ............XXXXXXXXX.........                ",
"                  ............XXXXXXXXX.........                ",
"                ..............XXXXXXX...........                ",
"                ...............XXXXXX...........                ",
"                ...............XXXXXX...........                ",
"                ...............XXXXXX...........                ",
"                ...............XXXXXX...........                ",
"                ...............XXXXXX...........                ",
"                ...............XXXXXX...........                ",
"                .....XXXX........X.................             ",
"                .....XXXX........X.................             ",
"                .....XXXX........X.................             ",
"             ......XX....XX........................             ",
"             .....XXXXXXXXX.............XXXXX......             ",
"             .....XXXXXXXXX............XXXX..X.....             ",
"             .....XXXXXXXXX............XXXX..X.....             ",
"             .....XXXXXXXXX............XXXX..X.....             ",
"             .....XXXXXXXXX............XXXX..X.....             ",
"             .....XXXXXXXXX............XXXX..X.....             ",
"             ......XXXXXX..............XXXXXXX.....             ",
"             ...........................XXXXX......             ",
"             ...........................XXXXX......             ",
"             ......................................             ",
"             ......................................             ",
"             ......................................             ",
"             ......................................             ",
"             ......................................             ",
"             ......................................             ",
"             ......................................             ",
"             ......................................             ",
"             ......................................             ",
"                ................................                ",
"                ................................                ",
"                  ..............................                ",
"                   ...........................                  ",
"                   ...........................                  ",
"                              .............                     ",
"                              .............                     ",
"                              .............                     ",
"                                                                "
};
