/* XPM */
static char *Enemy_jumping1703852238[] = {
/* columns rows colors chars-per-pixel */
"64 94 3 1 ",
"  c None",
". c black",
"X c white",
/* pixels */
"                                                                ",
"                                                                ",
"                            XXXXXXXXXX                          ",
"                          XX..........XXXX                      ",
"                          XX..........XXXX                      ",
"                        XXXX..............X                     ",
"                        XXXX..............X                     ",
"                      XX..XX...............XX                   ",
"                      XX..XX...............XX                   ",
"                      XX..XX........XXXXXX.XX                   ",
"                     X....XX.......XXXXXXX.XX                   ",
"                     X....XX.......XXXXXXX.XX                   ",
"                     X..XX.........XXXXXXXX..XX                 ",
"                     X..XX.........XXXXXXXX..XX                 ",
"                   XX...XX..XXXXX..XXXXXXXX..XX                 ",
"                   XX...XX..XXXXX..XXXXXXXX..XX                 ",
"                   XX...XXXXXXXXX..XXXXXXXX..XX                 ",
"                   XX...XXXXXXXXX..XXXXXXXX..XX                 ",
"                   XX...XXXXXXXXX..XXXXXXXX..XX                 ",
"                   XX.XXXX...XXXX..XXX..XXX..XX                 ",
"                   XX.XXXX...XXXX..XXX..XXX..XX                 ",
"                   XX.XXXX...XXXX..XXXXXXXX..XX                 ",
"                   XX.XXXX...XXXX..XXXXXXXX..XX                 ",
"                   XX.XXXXXXXXXXX..XXXXXXXX..XX                 ",
"                   XX.XXXXXXXXXXX..XXXXXXXX..XX                 ",
"                   XX.XXXXXXXXXXX..XXXXXXXX..XX                 ",
"                   XX...XXXXXXX.....XXXXXX...XX                 ",
"                   XX...XXXXXXX.....XXXXXX...XX                 ",
"                   XX.....XXX.........XX.....XX                 ",
"                   XX.....XXX.........XX.....XX                 ",
"                     X................XX.....XX                 ",
"                     X..XX............XX..X..XX                 ",
"                     X..XX............XX..X..XX                 ",
"                     X..XX............XX..X..XX                 ",
"                     X..XX............XX..X..XX                 ",
"                     X..XXXXXXXXXXXXXXXXXXX..XX                 ",
"                     X..XXXXXXXXXXXXXXXXXXX..XX                 ",
"                     X....XXXXXXXXXXXXXXXX...XX                 ",
"                      XX....XXXXXXXXXXXX...XX                   ",
"                      XX....XXXXXXXXXXXX...XX                   ",
"                      XX.....XXXXXXXXX....X                     ",
"                      XX.....XXXXXXXXX....X                     ",
"                        XX.....XXXXXXX....X                     ",
"                        XX.....XXXXXXX....X                     ",
"                      XXXX.......XXX....XX                      ",
"                   XXXXXXXXX..........XXXXXXX                   ",
"                   XXXXXXXXX..........XXXXXXX                   ",
"                   XXXXXXXXXX.......XXXXXXXXX                   ",
"                   XXXXXXXXXX.......XXXXXXXXX                   ",
"                 XXXXXXXXXXXXXXXXXXXXXXXXXXXXXX                 ",
"                 XXXXXXXXXXXXXXXXXXXXXXXXXXXXXX                 ",
"                 XXXXXXXXXXXXXXXXXXXXXXXXXXXXXX                 ",
"                 XXXXXXXXXXX..........XXXXXXXXXXX               ",
"                 XXXXXXXXXXX..........XXXXXXXXXXX               ",
"                 XXXXXXXXXXXX...........XXXXXXXXX               ",
"                 XXXXXXXXXXXX...........XXXXXXXXX               ",
"                 XXXXXXXXXXXXXXXXXXX..XXXXXXXXXXX               ",
"               XXXXXXXXXXXXXXXXXXXXXXXXXXXXXXXXXX               ",
"               XXXXXXXXXXXXXXXXXXXXXXXXXXXXXXXXXX               ",
"               XXXXXXXXXXXXXXXXXX.....XXXXXXXXXXX               ",
"               XXXXXXXXXXXXXXXXXX.....XXXXXXXXXXX               ",
"               XXXXXX...XXXXX.......XXXXXXXXXXXXX               ",
"               XXXXXX...XXXXX.......XXXXXXXXXXXXX               ",
"               XXXX..XXX..XXXXX.....XXXXXXXXXXXXX               ",
"               XX....XXX..XXXXX.....XXXX.....XXXXX              ",
"               XX....XXX..XXXXX.....XXXX.....XXXXX              ",
"              XXX...........XXX.....XXXX..XXX..XXX              ",
"              XXX...........XXX.....XXXX..XXX..XXX              ",
"              XXX...........XXXXX...XX....XXX..XXX              ",
"              XXX...........XXXXX...XX....XXX..XXX              ",
"              XXXXX.....XXXXXXXXXXXXXX.........XXX              ",
"              XXXXXXXXXXXXXXXXXXXXXXXXXX.....XXXXX              ",
"              XXXXXXXXXXXXXXXXXXXXXXXXXX.....XXXXX              ",
"              XXXXXXXXXXXXXXXXXXXXXXXXXX..XXXXXXXX              ",
"              XXXXXXXXXXXXXXXXXXXXXXXXXX..XXXXXXXX              ",
"              XXXXXXXXXXXXXXXXXXXXXXXXXXXXXXXXXXXX              ",
"              XXXXXXXXXXXXXXXXXXXXXXXXXXXXXXXXXXXX              ",
"              XXXXXXXXXXXXXXXXXXXXXXXXXXXXXXXXXXXX              ",
"              XXXXXXXXXXXXXXXXXXXXXXXXXXXXXXXXXXXX              ",
"              XXXXXXXXXXXXXXXXXXXXXXXXXXXXXXXXXXXX              ",
"              XXXXXXXXXXXXXXXXXXXXXXXXXXXXXXXXXXXX              ",
"              XXXXXXXXXXXXXXXXXXXXXXXXXXXXXXXXXXXX              ",
"              XXXXXXXXXXXXXXXXXXXXXXXXXXXXXXXXXXXX              ",
"              XXXXXXXXXXXXXXXXXXXXXXXXXXXXXXXXXXXX              ",
"              XXXXXXXXXXXXXXXXXXXXXXXXXXXXXXXXXXXX              ",
"               XXXXXXXXXXXXXXXXXXXXXXXXXXXXXXXXXX               ",
"               XXXXXXXXXXXXXXXXXXXXXXXXXXXXXXXXXX               ",
"                 XXXXXXXXXXXXXXXXXXXXXXXXXXXXXXXX               ",
"                 XXXXXXXXXXXXXXXXXXXXXXXXXXXXXXXX               ",
"                   XXXXXXXXXXXXXXXXXXXXXXXXXXXX                 ",
"                   XXXXXXXXXXXXXXXXXXXXXXXXXXXX                 ",
"                             XXXXXXXXXXXXXX                     ",
"                                                                ",
"                                                                "
};
