/* XPM */
static char *_5319bf33f0e4a3eeaddf9a2fba8ab38UsF1UnTY7fgIzq2H[] = {
/* columns rows colors chars-per-pixel */
"64 64 3 1 ",
"  c None",
". c black",
"X c #BCBCBC",
/* pixels */
"                                                                ",
"                                                                ",
"                                                                ",
"                                                                ",
"                                                                ",
"                                                                ",
"                                                                ",
"                                                                ",
"                                                                ",
"                                                                ",
"                                                                ",
"                                                                ",
"                                                                ",
"                                                                ",
"                                                                ",
"                                                                ",
"                                                                ",
"                                                                ",
"                                                                ",
"                                                                ",
"                                                                ",
"                                                                ",
"                                                                ",
"                                                                ",
"                                                                ",
"                                                                ",
"                         ............                           ",
"                         ............                           ",
"                       ..XXXXXXXXXXXX..                         ",
"                       ..XXXXXXXXXXXX..                         ",
"                     ..XXXXXXXXXXXXXXXX..                       ",
"                     ..XXXXXXXXXXXXXXXX..                       ",
"                   ..XXXXXXXXXXXXXXXXXXXX..                     ",
"                   ..XXXXXXXXXXXXXXXXXXXX..                     ",
"                 ..XXXXXXXXXXXXXXXXXXXXXXXX..                   ",
"                 ..XXXXXXXXXXXXXXXXXXXXXXXX..                   ",
"                 ..XXXXXXXX..XX..XXXXXXXXXXXX..                 ",
"                 ..XXXXXXXX..XX..XXXXXXXXXXXX..                 ",
"               ..XXXXXXXXXX..XX..XXXXXXXXXXXXXX..               ",
"               ..XXXXXXXXXX..XX..XXXXXXXXXXXXXX..               ",
"               ..XXXXXXXXXXXXXXXXXXXXXXXXXXXXXX..               ",
"               ..XXXXXXXXXXXXXXXXXXXXXXXXXXXXXX..               ",
"               ..XXXXXXXX..XXXXXX..XXXXXXXXXXXX..               ",
"               ..XXXXXXXX..XXXXXX..XXXXXXXXXXXX..               ",
"             ..XXXXXXXXXXXX......XXXXXXXXXXXXXXXX..             ",
"             ..XXXXXXXXXXXX......XXXXXXXXXXXXXXXX..             ",
"             ..XXXXXXXXXXXXXXXXXXXXXXXXXXXXXXXXXX..             ",
"             ..XXXXXXXXXXXXXXXXXXXXXXXXXXXXXXXXXX..             ",
"               ..XXXXXXXXXXXXXXXXXXXXXXXXXXXXXX..               ",
"               ..XXXXXXXXXXXXXXXXXXXXXXXXXXXXXX..               ",
"               ..XXXXXXXXXXXXXXXXXXXXXXXXXXXXXX..               ",
"               ..XXXXXXXXXXXXXXXXXXXXXXXXXXXXXX..               ",
"               ..XXXXXXXXXXXXXXXXXXXXXXXXXXXXXX..               ",
"               ..XXXXXXXXXXXXXXXXXXXXXXXXXXXXXX..               ",
"                 ..XXXXXXXXXXXXXXXXXXXXXXXXXX..                 ",
"                 ..XXXXXXXXXXXXXXXXXXXXXXXXXX..                 ",
"                   ..................XXXX....                   ",
"                   ..................XXXX....                   ",
"                                     ....                       ",
"                                     ....                       ",
"                                                                ",
"                                                                ",
"                                                                ",
"                                                                "
};
