/* XPM */
static char * dead2_xpm[] = {
"64 64 3 1",
" 	c None",
".	c #FFFFFF",
"+	c #FF0000",
"                                                                ",
"                                                                ",
"                                                                ",
"                                                                ",
"                                                                ",
"                                                                ",
"                ....        ......                              ",
"                ....        ......                              ",
"                ......    ..........      ..                    ",
"                ......    ..........      ..                    ",
"              ..........  ......  ..    ......                  ",
"              ..........  ......  ..    ......                  ",
"              ............  ......    ..........                ",
"              ............  ......    ..........                ",
"              ..................................                ",
"              ..................................                ",
"              ..................................                ",
"              ..................................                ",
"            ....................................                ",
"            ....................................                ",
"            ......................................              ",
"            ......................................              ",
"            ......................................              ",
"            ......................................              ",
"          .............++............++...........              ",
"          ............+++++........+++++..........              ",
"    ....  ...........+++++++......+++++++...........            ",
"    ....  ...........+++++++......+++++++...........            ",
"  ...................++++++++....++++++++...........            ",
"  ...................+++++++++....+++++++...........            ",
"  ...................+++++++++....+++++++.............          ",
"  ...................++++++++....++++++++.............          ",
"    .................++++++++....++++++++...............        ",
"    .................+++++++++....+++++++...............        ",
"      .................+++++++....+++++.................        ",
"      .................++++++....++++++.................        ",
"          ...............++++....++++.................          ",
"          ...............++++....++++.................          ",
"            ...............++....++.................            ",
"            ...............++....++.................            ",
"            ..................................        ....      ",
"            ..................................        ....      ",
"            ..........  ....................................    ",
"            ..........  ....................................    ",
"              ........  ....................................    ",
"              ........  ....................................    ",
"              ......    ..................................      ",
"              ......    ..................................      ",
"                ..      ................................        ",
"                ..      ................................        ",
"                          ..........................            ",
"                          ..........................            ",
"                          ..........................            ",
"                          ..........................            ",
"                          ......  ......      ......            ",
"                          ......  ......      ......            ",
"                          ......    ....      ......            ",
"                          ......    ....      ......            ",
"                                                                ",
"                                                                ",
"                                                                ",
"                                                                ",
"                                                                ",
"                                                                "};
