/* XPM */
static char * dead1_xpm[] = {
"64 64 3 1",
" 	c None",
".	c #FFFFFF",
"+	c #FF0000",
"                                                                ",
"                                                                ",
"                                                                ",
"                                                                ",
"                                                                ",
"                                                                ",
"                ....        ......                              ",
"                ....        ......                              ",
"                ......    ..........      ..                    ",
"                ......    ..........      ..                    ",
"              ..........  ......  ..    ......                  ",
"              ..........  ......  ..    ......                  ",
"              ............  ......    ..........                ",
"              ............  ......    ..........                ",
"              ..................................                ",
"              ..................................                ",
"              ..................................                ",
"              ..................................                ",
"            ....................................                ",
"            ....................................                ",
"            ......................................              ",
"            ......................................              ",
"            ......................................              ",
"            ......................................              ",
"          ...............++........++.............              ",
"          ..............+++++....+++++............              ",
"    ....  .............+++++++..+++++++.............            ",
"    ....  .............+++++++..+++++++.............            ",
"  .....................++++++++++++++++.............            ",
"  .....................++++++++++++++++.............            ",
"  .....................++++++++++++++++...............          ",
"  .....................++++++++++++++++...............          ",
"    ...................++++++++++++++++.................        ",
"    ...................++++++++++++++++.................        ",
"      ...................++++++++++++...................        ",
"      ...................++++++++++++...................        ",
"          .................++++++++...................          ",
"          .................++++++++...................          ",
"            .................++++...................            ",
"            .................++++...................            ",
"            ..................................        ....      ",
"            ..................................        ....      ",
"            ..........  ....................................    ",
"            ..........  ....................................    ",
"              ........  ....................................    ",
"              ........  ....................................    ",
"              ......    ..................................      ",
"              ......    ..................................      ",
"                ..      ................................        ",
"                ..      ................................        ",
"                          ..........................            ",
"                          ..........................            ",
"                          ..........................            ",
"                          ..........................            ",
"                          ......  ......      ......            ",
"                          ......  ......      ......            ",
"                          ......    ....      ......            ",
"                          ......    ....      ......            ",
"                                                                ",
"                                                                ",
"                                                                ",
"                                                                ",
"                                                                ",
"                                                                "};
