/* XPM */
static char *b2a1338e84354559ea24b1d4c058a6c7DhVgDCJR6fq4i7b7[] = {
/* columns rows colors chars-per-pixel */
"64 64 5 1 ",
"  c None",
". c black",
"X c #00A2E8",
"o c #A6ABA9",
"O c white",
/* pixels */
"                                                                ",
"                                                                ",
"                                                                ",
"                                                                ",
"                                                                ",
"                                                                ",
"                                                                ",
"                                                                ",
"                                                                ",
"                                                                ",
"                ....        ......                              ",
"                ....        ......                              ",
"                ..OO..    ..........      ..                    ",
"                ..OO..    ..........      ..                    ",
"              ..ooOOOO..  ......  ..    ..OO..                  ",
"              ..ooOOOO..  ......  ..    ..OO..                  ",
"              ..ooooOO....  ......    ..OOooOO..                ",
"              ..ooooOO....  ......    ..OOooOO..                ",
"              ..oo..oo................OOooooOO..                ",
"              ..oo..oo................OOooooOO..                ",
"              ........................ooooooOO..                ",
"              ........................ooooooOO..                ",
"            ..............oo..............ooOO..                ",
"            ..............oo..............ooOO..                ",
"            ..............OOoo..............oo....              ",
"            ..............OOoo..............oo....              ",
"            ..........OOOOOOOOOO..................              ",
"            ..........OOOOOOOOOO..................              ",
"          ..........OOOOOOOOOOOOOO................              ",
"          ..........OOOOOOOOOOOOOO................              ",
"    ....  ........ooOO..OOOOOOOOOOoo................            ",
"    ....  ........ooOO..OOOOOOOOOOoo................            ",
"  ..OOOO..........OOOOOOOOOOOOOOOOOO................            ",
"  ..OOOO..........OOOOOOOOOOOOOOOOOO................            ",
"  ..OOOOOO........OOOOOOOO..OOOO..OO..................          ",
"  ..OOOOOO........OOOOOOOO..OOOO..OO..................          ",
"    ..OOOO........OOOOooOOOOOOOOOOOOOO............OOOO..        ",
"    ..OOOO........OOOOooOOOOOOOOOOOOOO............OOOO..        ",
"      ............OOOO....OOOO..OOOOOOoo........OOOOOO..        ",
"      ............OOOO....OOOO..OOOOOOoo........OOOOOO..        ",
"          ..........OOOOOO....OOOOOOOO..........OOOO..          ",
"          ..........OOOOOO....OOOOOOOO..........OOOO..          ",
"            ..........OOOOOOOOOOOOOOOO..............            ",
"            ..........OOOOOOOOOOOOOOOO..............            ",
"            ..............OOOOOOOO............                  ",
"            ..............OOOOOOOO............                  ",
"            ..........  ....oooooo..XX....................      ",
"            ..........  ....oooooo..XX....................      ",
"              ........  ..XX......XXXX......XXOOooOOOOOOOO..    ",
"              ........  ..XX......XXXX......XXOOooOOOOOOOO..    ",
"              ......    ..XXXXXXXXXXXX....XXXXOOOOooOOOOOO..    ",
"              ......    ..XXXXXXXXXXXX....XXXXOOOOooOOOOOO..    ",
"                ..      ..XXXX..XXXXXX..XXXXXXOOOO........      ",
"                ..      ..XXXX..XXXXXX..XXXXXXOOOO........      ",
"                          ..XXXX..XXXXXXXXXXOOOOOOOO..          ",
"                          ..XXXX..XXXXXXXXXXOOOOOOOO..          ",
"                            ....OOOO..............OO..          ",
"                            ....OOOO..............OO..          ",
"                            ..........    ......  ....          ",
"                            ..........    ......  ....          ",
"                                                                ",
"                                                                ",
"                                                                ",
"                                                                "
};
