/* XPM */
static char *_c337e961fa248f0f0634e0298371c4es1DGJhKjxhDPxKWc[] = {
/* columns rows colors chars-per-pixel */
"64 64 7 1 ",
"  c None",
". c black",
"X c #880015",
"o c #ED1C24",
"O c #C0B1C5",
"+ c #C8BFE7",
"@ c white",
/* pixels */
"                                                                ",
"                                                                ",
"                                                                ",
"                                                                ",
"                                                                ",
"                                                                ",
"                                                                ",
"                                                                ",
"                                                                ",
"                                                                ",
"                                                                ",
"                                                                ",
"                                                                ",
"                                                                ",
"                                                                ",
"                                                                ",
"                        .......  .......                        ",
"                        .......  .......                        ",
"                       .XXoooXX..oooooXX.                       ",
"                       .XXoooXX..oooooXX.                       ",
"                     ..XooooooooooooooooX..                     ",
"                     ..XooOOOooooOOOooooX..                     ",
"                     ..XooOOOooooOOOooooX..                     ",
"                  ......XXooooooooooooXX......                  ",
"                  ......XXooooooooooooXX......                  ",
"                ...OOOOOOOXXXXXOOXXoooOOOOOOO...                ",
"                ...OOOOOOOXXXXXOOXXoooOOOOOOO...                ",
"                ..+++OOXXXXXXOOOOOOXXXXXXOO@@@..                ",
"                ..+++++XXXOOOOOOOOOOOOXXo@@@@@..                ",
"                ..+++++XXXOOOOOOOOOOOOXXo@@@@@..                ",
"                ..+++++XXX++OOOOOOOO@@ooo@@@@@..                ",
"                ..+++++XXX++OOOOOOOO@@ooo@@@@@..                ",
"                ..+++++XXX+++++++@@@@@ooo@@@@@..                ",
"                ..+++++XXX+++++++@@@@@ooo@@@@@..                ",
"                ..+++++XXX+++++++@@@@@ooo@@@@@..                ",
"                ..+++++XXX+++++++@@@@@ooo@@@@@..                ",
"                ..+++++XXX+++++++@@@@@ooo@@@@@..                ",
"                ..+++++XXX+++++++@@@@@ooo@@@@@..                ",
"                ..+++++XXX+++++++@@@@@ooo@@@@@..                ",
"                ..+++++XXX+++++++@@@@@ooo@@@@@..                ",
"                ..+++++XXX+++++++@@@@@ooo@@@@@..                ",
"                  ...++XXX+++++++@@@@@ooo@@...                  ",
"                  ...++XXX+++++++@@@@@ooo@@...                  ",
"                     ...XX+++++++@@@@@oo...                     ",
"                        ....+++++@@@....                        ",
"                        ....+++++@@@....                        ",
"                            ........                            ",
"                            ........                            ",
"                                                                ",
"                                                                ",
"                                                                ",
"                                                                ",
"                                                                ",
"                                                                ",
"                                                                ",
"                                                                ",
"                                                                ",
"                                                                ",
"                                                                ",
"                                                                ",
"                                                                ",
"                                                                ",
"                                                                ",
"                                                                "
};
