/* XPM */
static char *_5297e233e7c4bd5a75e39b73da482ebBk4szgpA2lWyETbT[] = {
/* columns rows colors chars-per-pixel */
"64 64 5 1 ",
"  c None",
". c black",
"X c #491E49",
"o c #612C61",
"O c #622C62",
/* pixels */
"                                                                ",
"                                                                ",
"                                                                ",
"                            .......                             ",
"                        ....ooooooo....                         ",
"                    ..oooo...........ooooo.                     ",
"                   .oooo..ooooooooooo..oooo..                   ",
"                 ..ooo..oo..ooooooo..oo..oooo.                  ",
"               .ooo..o.......o..............ooo..               ",
"              .oooooo..oooo.........oooo..oo.oooo               ",
"            ..ooo.......oooo.......oooo.....o.ooo..             ",
"           .ooo.oo.......oooo.ooo.ooooo......o...ooo            ",
"          .ooo..o.........ooo..o..ooo........o...ooo.           ",
"         .ooo...o............................o....ooo.          ",
"        .ooooo..o.........ooo.....ooo........o.o.o..oo.         ",
"        oooooo..o.............ooo............o...o..ooo.        ",
"        ooo.ooo.o..............o.............o...o..ooo.        ",
"       .ooo.........................................oooo        ",
" X............................................................  ",
" .oooooooooooooooooooooooooooooooooooooooooooooooooooooooooooo  ",
"  ............oo.ooooooooooooooooooooooo.ooooo..o.............  ",
"  ooooooooooooo................................o.oooooooooooo.  ",
" .ooooooooooooo.................................oooooooooooooo  ",
" .ooo.......ooo..........ooooo.oooooo...........ooo........ooo  ",
"  ....................oooooooo.ooooooooo.......X.............   ",
"   ..ooooooo.........ooooooooo.ooooooooo.......X...oooooooo.    ",
"   .ooooooooo.......oooooooooo.oooooooooo......X..ooooooooo.    ",
"    ..X.X.X..X.....ooooooooooo.ooooooooooo.....X.X.oo.ooo.o     ",
"    ..o.o.o..X.....ooooooooooo.ooooooooooo.....X.X.oo.ooo.o     ",
"    ..o.o.o..X.....ooooooooooo.oooooooooooo....X.X.oo.ooo.o     ",
"    ..o.o.o..X.....oo....oooo...ooooo...ooo....X.X.oo.ooo.o     ",
"    ..o.o.o..X.....oooo...oo.....oo....oooo....X.X.oo.ooo.o     ",
"    ..o.o.o..XX....oooooo..o.....o...oooooo....X.X.oo.ooo.o     ",
"    ..o.o.o..X.....ooooooooooo.oooooooooooo....X.X.oo.ooo.o     ",
"    ..o.o.o..X.....ooooooooooo.oooooooooooo....X.X.oo.ooo.o     ",
"    ..o.o.o..XX....ooooooooooo.oooooooooooo....X.X.oo.ooo.o     ",
"    ..o.o.o..XX....ooooooooooo.oooooooooooo....XXX.oo.ooo.o     ",
"    ..o.o.o..XX....oooooo.oooo.oooo.ooooooo....X.X.oo.ooo.o     ",
"    ..o.o.o..XX....ooooo...ooo.ooo...oooooo....XXX.oo.ooo.o     ",
"    ..o.o.o..XX....ooooo...ooo.ooo...oooooo....XXX.oo.ooo.o     ",
"    ..o.o.o..XX....ooooooooooo.oooooooooooo....XXX.oo.ooo.o     ",
"    ..o.o.o..XX....ooooooooooo.oooooooooooo....XXX.oo.ooo.o     ",
"    ..o.o.o..XX....ooooooooo.....oooooooooo....XXX.oo.ooo.o     ",
"    ..o.o.o..XX....ooooooooo.....oooooooooo....XXX.oo.o.o.o     ",
"    ..o.o.o..XX....oooooooooo...ooooooooooo....XXX.oo.o.o.o     ",
"    ..o.o.o..XX....ooooooooooo.oooooooooooo....XXX.oo.ooo.o     ",
"    ..o.o.o..XX....ooooooooooo.oooooooooooo....XXX.oo.ooo.o     ",
"    ..o.o.o..XX....ooooooooooo.oooooooooooo....XXX.oo.ooo.o     ",
"    ..o.o.o..XX....ooooooooooo.oooooooooooo....XXX.oo.ooo.o     ",
"    ..o.o.o..XX....ooooooooooo.oooooooooooo....XXX.oo.ooo.o     ",
"    ..o...o..XX....ooooooooooo.oooooooooooo....XXX.oo.ooo.o     ",
"    ..o...o..XX....ooooooooooo.oooooooooooo....XXX.oo.ooo.o     ",
"    ..o...o..XX....ooooooooooo.oooooooooooo....XXX.oo..oo.o     ",
"    ..o...o..XX....ooooooooooo.oooooooooooo....XXX.oo..oo.o     ",
"    ..o...o..XX....ooooooooooo.oooooooooooo....XXX.oo..oo.o     ",
"    ..o...o..XX....ooooooooooo.oooooooooooo....XXX.oo...o.o     ",
"   .ooooooooo.X....ooooooooooo.oooooooooooo....XX.ooooooooo.    ",
"  ...ooooooo..X....ooooooooooo.oooooooooooo....XX..oooooooo..   ",
"  .............................................XX.............  ",
" .ooo.......ooo...o.o..oooooooooooooooooooo.....ooo........ooo  ",
" .ooooooooooooo..................................ooooooooooooo  ",
" ..............ooooooooooooooooooooooooooooooooo..............  ",
"   .oooooooo.oooooooooooooooooooooooooooooooooooo..oooooooo.    ",
"   .........................................................    "
};
