/* XPM */
static char *_d722e87f9c34410dcc4418761ad59cemJkVWaYsrDNiXZcA[] = {
/* columns rows colors chars-per-pixel */
"64 64 3 1 ",
"  c black",
". c #84357D",
"X c #A349A4",
/* pixels */
"  XXXX                                                          ",
"  XXXX                                                          ",
"  XXXXXXX  ...................  ...................  .........  ",
"  XXXXXXX  ...................  ...................  .........  ",
"  XXXXXXX  ...................  ...................  .........  ",
"  XXXXXXX  ...................  ...................  .........  ",
"    XXXXX..  ...................  ...................  .......  ",
"    XXXXX..  ...................  ...................  .......  ",
"    XXXXX..  ...................  ...................  .......  ",
"  XX  XXX..  ...................  ...................  .......  ",
"  XX  XXX..  ...................  ...................  .......  ",
"  XXXX                                                          ",
"  XXXX                                                          ",
"  XXXXXXX..........  ....................  ...................  ",
"  XXXXXXX..........  ....................  ...................  ",
"  XXXXXXX..........  ....................  ...................  ",
"  XXXXXXX..........  ....................  ...................  ",
"    XXXXX............  ....................  .................  ",
"    XXXXX............  ....................  .................  ",
"  XX  XXX............  ....................  .................  ",
"  XX  XXX............  ....................  .................  ",
"  XXXX                                                          ",
"  XXXX                                                          ",
"  XXXXXXX  ...................  ...................  .........  ",
"  XXXXXXX  ...................  ...................  .........  ",
"  XXXXXXX  ...................  ...................  .........  ",
"  XXXXXXX  ...................  ...................  .........  ",
"  XXXXXXX  ...................  ...................  .........  ",
"    XXXXX..  ...................  ...................  .......  ",
"    XXXXX..  ...................  ...................  .......  ",
"  XX  XXX..  ...................  ...................  .......  ",
"  XX  XXX..  ...................  ...................  .......  ",
"  XXXX                                                          ",
"  XXXX                                                          ",
"  XXXXXXX..........  ....................  ...................  ",
"  XXXXXXX..........  ....................  ...................  ",
"  XXXXXXX..........  ....................  ...................  ",
"  XXXXXXX..........  ....................  ...................  ",
"    XXXXX............  ....................  .................  ",
"    XXXXX............  ....................  .................  ",
"    XXXXX............  ....................  .................  ",
"  XX  XXX............  ....................  .................  ",
"  XX  XXX............  ....................  .................  ",
"  XXXX                                                          ",
"  XXXX                                                          ",
"  XXXXXXX  ...................  ...................  .........  ",
"  XXXXXXX  ...................  ...................  .........  ",
"  XXXXXXX  ...................  ...................  .........  ",
"  XXXXXXX  ...................  ...................  .........  ",
"    XXXXX..  ...................  ...................  .......  ",
"    XXXXX..  ...................  ...................  .......  ",
"  XX  XXX..  ...................  ...................  .......  ",
"  XX  XXX..  ...................  ...................  .......  ",
"  XXXX                                                          ",
"  XXXX                                                          ",
"  XXXXXXX..........  ....................  ...................  ",
"  XXXXXXX..........  ....................  ...................  ",
"  XXXXXXX..........  ....................  ...................  ",
"  XXXXXXX..........  ....................  ...................  ",
"  XXXXXXX............  ....................  .................  ",
"    XXXXX............  ....................  .................  ",
"    XXXXX............  ....................  .................  ",
"  XX  XXX............  ....................  .................  ",
"  XX  XXX............  ....................  .................  "
};
