/* XPM */
static char *f15505948df041eca7f250596c34c5fc5ziu8eE3XT9BZnmw[] = {
/* columns rows colors chars-per-pixel */
"64 64 2 1 ",
"  c black",
". c #84357D",
/* pixels */
"                                                                ",
"                                                                ",
".........  ...................  ...................  ...........",
".........  ...................  ...................  ...........",
".........  ...................  ...................  ...........",
".........  ...................  ...................  ...........",
"...........  ...................  ...................  .........",
"...........  ...................  ...................  .........",
"...........  ...................  ...................  .........",
"...........  ...................  ...................  .........",
"                                                                ",
"                                                                ",
"...................  ....................  ...................  ",
"...................  ....................  ...................  ",
"...................  ....................  ...................  ",
"...................  ....................  ...................  ",
"...................  ....................  ...................  ",
"  ...................  ....................  ...................",
"  ...................  ....................  ...................",
"  ...................  ....................  ...................",
"  ...................  ....................  ...................",
"                                                                ",
"                                                                ",
".........  ...................  ...................  ...........",
".........  ...................  ...................  ...........",
".........  ...................  ...................  ...........",
".........  ...................  ...................  ...........",
"...........  ...................  ...................  .........",
"...........  ...................  ...................  .........",
"...........  ...................  ...................  .........",
"...........  ...................  ...................  .........",
"                                                                ",
"                                                                ",
"...................  ....................  ...................  ",
"...................  ....................  ...................  ",
"...................  ....................  ...................  ",
"...................  ....................  ...................  ",
"  ...................  ....................  ...................",
"  ...................  ....................  ...................",
"  ...................  ....................  ...................",
"  ...................  ....................  ...................",
"                                                                ",
"                                                                ",
".........  ...................  ...................  ...........",
".........  ...................  ...................  ...........",
".........  ...................  ...................  ...........",
".........  ...................  ...................  ...........",
"...........  ...................  ...................  .........",
"...........  ...................  ...................  .........",
"...........  ...................  ...................  .........",
"...........  ...................  ...................  .........",
"...........  ...................  ...................  .........",
"                                                                ",
"                                                                ",
"................................................................",
"................................................................",
"................................................................",
"................................................................",
"................................................................",
"................................................................",
"................................................................",
"................................................................",
"                                                                ",
"                                                                "
};
