/* XPM */
static char *_3dce8e262a6430cd72fd0a3d12fd41azQFQQC4l80LgNmUf[] = {
/* columns rows colors chars-per-pixel */
"64 64 2 1 ",
"  c black",
". c #84357D",
/* pixels */
".........  ...................  ...................  ...........",
".........  ...................  ...................  ...........",
".........  ...................  ...................  ...........",
".........  ...................  ...................  ...........",
"...........  ...................  ...................  .........",
"...........  ...................  ...................  .........",
"...........  ...................  ...................  .........",
"...........  ...................  ...................  .........",
"...........  ...................  ...................  .........",
"                                                                ",
"                                                                ",
"...................  ....................  ...................  ",
"...................  ....................  ...................  ",
"...................  ....................  ...................  ",
"...................  ....................  ...................  ",
"  ...................  ....................  ...................",
"  ...................  ....................  ...................",
"  ...................  ....................  ...................",
"  ...................  ....................  ...................",
"                                                                ",
"                                                                ",
".........  ...................  ...................  ...........",
".........  ...................  ...................  ...........",
".........  ...................  ...................  ...........",
".........  ...................  ...................  ...........",
".........  ...................  ...................  ...........",
"...........  ...................  ...................  .........",
"...........  ...................  ...................  .........",
"...........  ...................  ...................  .........",
"...........  ...................  ...................  .........",
"                                                                ",
"                                                                ",
"...................  ....................  ...................  ",
"...................  ....................  ...................  ",
"...................  ....................  ...................  ",
"...................  ....................  ...................  ",
"  ...................  ....................  ...................",
"  ...................  ....................  ...................",
"  ...................  ....................  ...................",
"  ...................  ....................  ...................",
"  ...................  ....................  ...................",
"                                                                ",
"                                                                ",
".........  ...................  ...................  ...........",
".........  ...................  ...................  ...........",
".........  ...................  ...................  ...........",
".........  ...................  ...................  ...........",
"...........  ...................  ...................  .........",
"...........  ...................  ...................  .........",
"...........  ...................  ...................  .........",
"...........  ...................  ...................  .........",
"                                                                ",
"                                                                ",
"................................................................",
"................................................................",
"................................................................",
"................................................................",
"................................................................",
"................................................................",
"................................................................",
"................................................................",
"................................................................",
"                                                                ",
"                                                                "
};
