/* XPM */
static char *result[] = {
/* columns rows colors chars-per-pixel */
"64 64 5 1 ",
"  c black",
". c #84357D",
"X c #85357E",
"o c #A349A4",
"O c None",
/* pixels */
"OOOOOOOOOOOOOOOOOOOOOOOOOOOOOOOOOOOOOOOOOOOOOOOOOOOOOOOOOOOOOOOO",
"OOOOOOOOOOOOOOOOOOOOOOOOOOOOOOOOOOOOOOOOOOOOOOOOOOOOOOOOOOOOOOOO",
"                                                          OOOOOO",
"                                                          OOOOOO",
"oooooooooooooooooooooooooooooooooooooooooooooooooooooooooo  OOOO",
"oooooooooooooooooooooooooooooooooooooooooooooooooooooooooo  OOOO",
"XXXXXXXXXXXXXXXXXXXXXXXXXXXXXXXXXXXXXXXXXXXXXXXXXXXooooooooo  OO",
"XXXXXXXXXXXXXXXXXXXXXXXXXXXXXXXXXXXXXXXXXXXXXXXXXXXXoooooooo  OO",
"XXXXXXXXXXXXXXXXXXXXXXXXXXXXXXXXXXXXXXXXXXXXXXXXXXXXXoooooo     ",
"XXXXXXXXXXXXXXXXXXXXXXXXXXXXXXXXXXXXXXXXXXXXXXXXXXXXXXooooo     ",
"XXXXXXXXXXXXXXXXXXXXXXXXXXXXXXXXXXXXXXXXXXXXXXXXXXXXXXXoo  ooo  ",
"XXXXXXXXXXXXXXXXXXXXXXXXXXXXXXXXXXXXXXXXXXXXXXXXXXXXXXXoo  ooo  ",
"                                                         ooooo  ",
"                                                         ooooo  ",
"...................  ....................  ............ooooooo  ",
"...................  ....................  ............ooooooo  ",
"...................  ....................  ............ooooooo  ",
"...................  ....................  ............ooooooo  ",
".....................  ....................  ..........ooooooo  ",
"  ...................  ....................  ..........oooo     ",
"  ...................  ....................  ..........oooo     ",
"  ...................  ....................  ..........oo  ooo  ",
"  ...................  ....................  ..........oo  ooo  ",
"                                                         ooooo  ",
"                                                         ooooo  ",
".........  ...................  ...................  ..ooooooo  ",
".........  ...................  ...................  ..ooooooo  ",
".........  ...................  ...................  ..ooooooo  ",
".........  ...................  ...................  ..ooooooo  ",
"...........  ...................  ...................  oooo     ",
"...........  ...................  ...................  oooo     ",
"...........  ...................  ...................  oo  ooo  ",
"...........  ...................  ...................  oo  ooo  ",
"                                                         ooooo  ",
"                                                         ooooo  ",
"...................  ....................  ............ooooooo  ",
"...................  ....................  ............ooooooo  ",
"...................  ....................  ............ooooooo  ",
"...................  ....................  ............ooooooo  ",
".....................  ....................  ..........oooo     ",
"  ...................  ....................  ..........oooo     ",
"  ...................  ....................  ..........oo  ooo  ",
"  ...................  ....................  ..........oo  ooo  ",
"  ...................  ....................  ..........  ooooo  ",
"                                                         ooooo  ",
"                                                       ooooooo  ",
".........  ...................  ...................  ..ooooooo  ",
".........  ...................  ...................  ..ooooooo  ",
".........  ...................  ...................  ..ooooooo  ",
".........  ...................  ...................  ..ooooooo  ",
"...........  ...................  ...................  oooo     ",
"...........  ...................  ...................  oooo     ",
"...........  ...................  ...................  oo  ooo  ",
"...........  ...................  ...................  oo  ooo  ",
"                                                         ooooo  ",
"                                                         ooooo  ",
"...................  ....................  ............ooooooo  ",
"...................  ....................  ............ooooooo  ",
"...................  ....................  ............ooooooo  ",
"...................  ....................  ............ooooooo  ",
"  ...................  ....................  ..........oooo     ",
"  ...................  ....................  ..........oooo     ",
"  ...................  ....................  ..........oo  ooo  ",
"  ...................  ....................  ..........oo  ooo  "
};
