/* XPM */
static char *result[] = {
/* columns rows colors chars-per-pixel */
"64 64 5 1 ",
"  c black",
". c #84357D",
"X c #85357E",
"o c #A349A4",
"O c None",
/* pixels */
"                                                          oooo  ",
"                                                          oooo  ",
".........  ...................  ...................  ..ooooooo  ",
".........  ...................  ...................  ..ooooooo  ",
".........  ...................  ...................  ..ooooooo  ",
".........  ...................  ...................  ..ooooooo  ",
"...........  ...................  ...................  ooooo    ",
"...........  ...................  ...................  ooooo    ",
"...........  ...................  ...................  ooo  oo  ",
"...........  ...................  ...................  ooo  oo  ",
"                                                          oooo  ",
"                                                          oooo  ",
"...................  ....................  ............ooooooo  ",
"...................  ....................  ............ooooooo  ",
"...................  ....................  ............ooooooo  ",
"...................  ....................  ............ooooooo  ",
"...................  ....................  ............ooooooo  ",
"  ...................  ....................  ..........ooooo    ",
"  ...................  ....................  ..........ooooo    ",
"  ...................  ....................  ..........ooo  oo  ",
"  ...................  ....................  ..........ooo  oo  ",
"                                                          oooo  ",
"                                                          oooo  ",
".........  ...................  ...................  ..ooooooo  ",
".........  ...................  ...................  ..ooooooo  ",
".........  ...................  ...................  ..ooooooo  ",
".........  ...................  ...................  ..ooooooo  ",
"...........  ...................  ...................  ooooo    ",
"...........  ...................  ...................  ooooo    ",
"...........  ...................  ...................  ooo  oo  ",
"...........  ...................  ...................  ooo  oo  ",
"                                                          oooo  ",
"                                                          oooo  ",
"...................  ....................  ............ooooooo  ",
"...................  ....................  ............ooooooo  ",
"...................  ....................  ............ooooooo  ",
"...................  ....................  ............ooooooo  ",
"  ...................  ....................  ..........ooooo    ",
"  ...................  ....................  ..........ooooo    ",
"  ...................  ....................  ..........ooo  oo  ",
"  ...................  ....................  ..........ooo  oo  ",
"                                                          oooo  ",
"                                                          oooo  ",
".........  ...................  ...................  ..ooooooo  ",
".........  ...................  ...................  ..ooooooo  ",
".........  ...................  ...................  ..ooooooo  ",
".........  ...................  ...................  ..ooooooo  ",
"...........  ...................  ...................  ooooo    ",
"...........  ...................  ...................  ooooo    ",
"...........  ...................  ...................  ooooo    ",
"...........  ...................  ...................  ooo  oo  ",
"...........  ...................  ...................  ooo  oo  ",
"                                                          oooo  ",
"                                                          oooo  ",
"XXXXXXXXXXXXXXXXXXXXXXXXXXXXXXXXXXXXXXXXXXXXXXXXXXXXXXXooooooo  ",
"XXXXXXXXXXXXXXXXXXXXXXXXXXXXXXXXXXXXXXXXXXXXXXXXXXXXXXXooooooo  ",
"XXXXXXXXXXXXXXXXXXXXXXXXXXXXXXXXXXXXXXXXXXXXXXXXXXXXXXXooooooo  ",
"XXXXXXXXXXXXXXXXXXXXXXXXXXXXXXXXXXXXXXXXXXXXXXXXXXXXXXXooooooo  ",
"XXXXXXXXXXXXXXXXXXXXXXXXXXXXXXXXXXXXXXXXXXXXXXXXXXXXXXXooooo  OO",
"XXXXXXXXXXXXXXXXXXXXXXXXXXXXXXXXXXXXXXXXXXXXXXXXXXXXXXXooooo  OO",
"XXXXXXXXXXXXXXXXXXXXXXXXXXXXXXXXXXXXXXXXXXXXXXXXXXXXXXXooo  OOOO",
"XXXXXXXXXXXXXXXXXXXXXXXXXXXXXXXXXXXXXXXXXXXXXXXXXXXXXXXooo  OOOO",
"                                                          OOOOOO",
"                                                          OOOOOO"
};
