/* XPM */
static char *result[] = {
/* columns rows colors chars-per-pixel */
"64 64 3 1 ",
"  c black",
". c #84357D",
"X c #A349A4",
/* pixels */
"                                                          XXXX  ",
"                                                          XXXX  ",
"  .......  ...................  ...................  ..XXXXXXX  ",
"  .......  ...................  ...................  ..XXXXXXX  ",
"  .......  ...................  ...................  ..XXXXXXX  ",
"  .......  ...................  ...................  ..XXXXXXX  ",
"  .........  ...................  ...................  XXXXX    ",
"  .........  ...................  ...................  XXXXX    ",
"  .........  ...................  ...................  XXX  XX  ",
"  .........  ...................  ...................  XXX  XX  ",
"                                                          XXXX  ",
"                                                          XXXX  ",
"  .................  ....................  ............XXXXXXX  ",
"  .................  ....................  ............XXXXXXX  ",
"  .................  ....................  ............XXXXXXX  ",
"  .................  ....................  ............XXXXXXX  ",
"  .................  ....................  ............XXXXXXX  ",
"  ...................  ....................  ..........XXXXX    ",
"  ...................  ....................  ..........XXXXX    ",
"  ...................  ....................  ..........XXX  XX  ",
"  ...................  ....................  ..........XXX  XX  ",
"                                                          XXXX  ",
"                                                          XXXX  ",
"  .......  ...................  ...................  ..XXXXXXX  ",
"  .......  ...................  ...................  ..XXXXXXX  ",
"  .......  ...................  ...................  ..XXXXXXX  ",
"  .......  ...................  ...................  ..XXXXXXX  ",
"  .........  ...................  ...................  XXXXXXX  ",
"  .........  ...................  ...................  XXXXX    ",
"  .........  ...................  ...................  XXXXX    ",
"  .........  ...................  ...................  XXX  XX  ",
"  .........  ...................  ...................  XXX  XX  ",
"                                                          XXXX  ",
"                                                          XXXX  ",
"  .................  ....................  ............XXXXXXX  ",
"  .................  ....................  ............XXXXXXX  ",
"  .................  ....................  ............XXXXXXX  ",
"  .................  ....................  ............XXXXXXX  ",
"  .................  ....................  ............XXXXXXX  ",
"  ...................  ....................  ..........XXXXX    ",
"  ...................  ....................  ..........XXXXX    ",
"  ...................  ....................  ..........XXX  XX  ",
"  ...................  ....................  ..........XXX  XX  ",
"                                                          XXXX  ",
"                                                          XXXX  ",
"  .......  ...................  ...................  ..XXXXXXX  ",
"  .......  ...................  ...................  ..XXXXXXX  ",
"  .......  ...................  ...................  ..XXXXXXX  ",
"  .......  ...................  ...................  ..XXXXXXX  ",
"  .......  ...................  ...................  ..XXXXX    ",
"  .........  ...................  ...................  XXXXX    ",
"  .........  ...................  ...................  XXXXX    ",
"  .........  ...................  ...................  XXX  XX  ",
"  .........  ...................  ...................  XXX  XX  ",
"                                                          XXXX  ",
"                                                          XXXX  ",
"  .................  ....................  ............XXXXXXX  ",
"  .................  ....................  ............XXXXXXX  ",
"  .................  ....................  ............XXXXXXX  ",
"  .................  ....................  ............XXXXX    ",
"  .................  ....................  ............XXXXX    ",
"  ...................  ....................  ..........XXXXX    ",
"  ...................  ....................  ..........XXX  XX  ",
"  ...................  ....................  ..........XXX  XX  "
};
