/* XPM */
static char *result[] = {
/* columns rows colors chars-per-pixel */
"64 64 5 1 ",
"  c black",
". c #84357D",
"X c #85357E",
"o c #A349A4",
"O c None",
/* pixels */
"OOOOOOOOOOOOOOOOOOOOOOOOOOOOOOOOOOOOOOOOOOOOOOOOOOOOOOOOOOOOOOOO",
"OOOOOOOOOOOOOOOOOOOOOOOOOOOOOOOOOOOOOOOOOOOOOOOOOOOOOOOOOOOOOOOO",
"                                                                ",
"                                                                ",
"oooooooooooooooooooooooooooooooooooooooooooooooooooooooooooooooo",
"oooooooooooooooooooooooooooooooooooooooooooooooooooooooooooooooo",
".............XXXXXXXXXXXXXXXXXXXXXXXXXXXXXXXXXXXXXXXXXXXXXXXXXXX",
"............XXXXXXXXXXXXXXXXXXXXXXXXXXXXXXXXXXXXXXXXXXXXXXXXXXXX",
"...........XXXXXXXXXXXXXXXXXXXXXXXXXXXXXXXXXXXXXXXXXXXXXXXXXXXXX",
"..........XXXXXXXXXXXXXXXXXXXXXXXXXXXXXXXXXXXXXXXXXXXXXXXXXXXXXX",
".........XXXXXXXXXXXXXXXXXXXXXXXXXXXXXXXXXXXXXXXXXXXXXXXXXXXXXXX",
".........XXXXXXXXXXXXXXXXXXXXXXXXXXXXXXXXXXXXXXXXXXXXXXXXXXXXXXX",
"                                                                ",
"                                                                ",
"...................  ....................  ...................  ",
"...................  ....................  ...................  ",
"...................  ....................  ...................  ",
"...................  ....................  ...................  ",
"  ...................  ....................  ...................",
"  ...................  ....................  ...................",
"  ...................  ....................  ...................",
"  ...................  ....................  ...................",
"  ...................  ....................  ...................",
"                                                                ",
"                                                                ",
".........  ...................  ...................  ...........",
".........  ...................  ...................  ...........",
".........  ...................  ...................  ...........",
".........  ...................  ...................  ...........",
"...........  ...................  ...................  .........",
"...........  ...................  ...................  .........",
"...........  ...................  ...................  .........",
"...........  ...................  ...................  .........",
"                                                                ",
"                                                                ",
"...................  ....................  ...................  ",
"...................  ....................  ...................  ",
"...................  ....................  ...................  ",
"...................  ....................  ...................  ",
"  ...................  ....................  ...................",
"  ...................  ....................  ...................",
"  ...................  ....................  ...................",
"  ...................  ....................  ...................",
"  ...................  ....................  ...................",
"                                                                ",
"                                                                ",
".........  ...................  ...................  ...........",
".........  ...................  ...................  ...........",
".........  ...................  ...................  ...........",
".........  ...................  ...................  ...........",
"...........  ...................  ...................  .........",
"...........  ...................  ...................  .........",
"...........  ...................  ...................  .........",
"...........  ...................  ...................  .........",
"                                                                ",
"                                                                ",
"...................  ....................  ...................  ",
"...................  ....................  ...................  ",
"...................  ....................  ...................  ",
"...................  ....................  ...................  ",
"  ...................  ....................  ...................",
"  ...................  ....................  ...................",
"                                                                ",
"                                                                "
};
