/* XPM */
static char *_a8e17d363cb43ba8848f7d393584a1eagol09CeGMMkvYCL[] = {
/* columns rows colors chars-per-pixel */
"64 64 10 1 ",
"  c None",
". c black",
"X c #71456E",
"o c #FF6699",
"O c #CC66FF",
"+ c #6699FF",
"@ c #B596AC",
"# c #FFCC99",
"$ c #CC99CC",
"% c #FDD4FD",
/* pixels */
"                      .....................                     ",
"                      .....................                     ",
"                 .....oooooooOOOOOOOooo####...                  ",
"                 .....oooooooOOOOOOOooo####...                  ",
"                 .....oooooooOOOOOOOooo####...                  ",
"               ..+++++#######ooooooo+++++++ooo..                ",
"               ..+++++#######ooooooo+++++++ooo..                ",
"             ....ooooo+++++OOOO+++OOOOOooooOOO....              ",
"             ....ooooo+++++OOOO+++OOOOOooooOOO....              ",
"             ..XX.............................XX..              ",
"             ..XX.............................XX..              ",
"             ..XX.............................XX..              ",
"             ..XX%%%%%%%%%%%%%%%%%%%%%%%%%%%%%XX..              ",
"             ..XX%%%%%%%%%%%%%%%%%%%%%%%%%%%%%XX..              ",
"               ..@@@@@@@@@@@@@@@@@@@@@@@@@@@@@..                ",
"               ..@@@@@@@@@@@@@@@@@@@@@@@@@@@@@..                ",
"               ..@@@@@@@@@@@@@@@@@@@@@@@@@@@@@..                ",
"             ....XXX@@@@@@@@@@@@@@@@@@@@@@@XXX....              ",
"             ....XXX@@@@@@@@@@@@@@@@@@@@@@@XXX....              ",
"          ...%%%%.............................%%%%...           ",
"          ...%%%%.............................%%%%...           ",
"        ..%%%%%XX@@@%%%%%%%%%%%%%%%%%%%%%%%@@@XX%%%%%..         ",
"        ..%%%%%XX@@@%%%%%%%%%%%%%%%%%%%%%%%@@@XX%%%%%..         ",
"        ..%%%%%XX@@@%%%%%%%%%%%%%%%%%%%%%%%@@@XX%%%%%..         ",
"        ..%%%%%%%XXX@@@@@@@@@@@@@@@@@@@@@@@XXX%%%%%%%..         ",
"        ..%%%%%%%XXX@@@@@@@@@@@@@@@@@@@@@@@XXX%%%%%%%..         ",
"          ...@@@@XXX%%%%%%%%%%%%%%%%%%%%%%%XXX@@@@...           ",
"          ...@@@@XXX%%%%%%%%%%%%%%%%%%%%%%%XXX@@@@...           ",
"             ..XX...XXXXXXXXXXXXXXXXXXXXXXX...XX..              ",
"             ..XX...XXXXXXXXXXXXXXXXXXXXXXX...XX..              ",
"             ..XX...XXXXXXXXXXXXXXXXXXXXXXX...XX..              ",
"               ..@@@%%%%%%%%%%%%%%%%%%%%%%%@@@..                ",
"               ..@@@%%%%%%%%%%%%%%%%%%%%%%%@@@..                ",
"               ..XXXXXXXXXXXXXXXXXXXXXXXXXXXXX..                ",
"               ..XXXXXXXXXXXXXXXXXXXXXXXXXXXXX..                ",
"               ..XXXXXXXXXXXXXXXXXXXXXXXXXXXXX..                ",
"                 ...@@XX@@@XX@@@@@XX@@@XX@@...                  ",
"                 ...@@XX@@@XX@@@@@XX@@@XX@@...                  ",
"                 ...@@XX%%%XX%%%%%XX%%%XX@@...                  ",
"                 ...@@XX%%%XX%%%%%XX%%%XX@@...                  ",
"                 ...@@XX%%%XX%%%%%XX%%%XX@@...                  ",
"                 ...@@XX%%%XX%%%%%XX%%%XX@@...                  ",
"                 ...@@XX%%%XX%%%%%XX%%%XX@@...                  ",
"                 ...@@XX@@@XX@@@@@XX@@@XX@@...                  ",
"                 ...@@XX@@@XX@@@@@XX@@@XX@@...                  ",
"               ..XXXXXXXXXXXXXXXXXXXXXXXXXXXXX..                ",
"               ..XXXXXXXXXXXXXXXXXXXXXXXXXXXXX..                ",
"               ..@@@@@@@@@@@@@@@@@@@@@@@@@@@@@..                ",
"               ..@@@@@@@@@@@@@@@@@@@@@@@@@@@@@..                ",
"               ..@@@@@@@@@@@@@@@@@@@@@@@@@@@@@..                ",
"             ..XX...XXXXXXXXXXXXXXXXXXXXXXX...XX..              ",
"             ..XX...XXXXXXXXXXXXXXXXXXXXXXX...XX..              ",
"          ...%%%%XXX%%%%%%%%%%%%%%%%%%%%%%%XXX%%%%...           ",
"          ...%%%%XXX%%%%%%%%%%%%%%%%%%%%%%%XXX%%%%...           ",
"          ...%%%%XXX%%%%%%%%%%%%%%%%%%%%%%%XXX%%%%...           ",
"        ..%%%%%%%XXX@@@@@@@@@@@@@@@@@@@@@@@XXX%%%%%%%..         ",
"        ..%%%%%%%XXX@@@@@@@@@@@@@@@@@@@@@@@XXX%%%%%%%..         ",
"        ..@@@@@XX@@@%%%%%%%%%%%%%%%%%%%%%%%@@@XX@@@@@..         ",
"        ..@@@@@XX@@@%%%%%%%%%%%%%%%%%%%%%%%@@@XX@@@@@..         ",
"          ...@@@@@@@@@@@@@@@@@@@@@@@@@@@@@@@@@$$$$...           ",
"          ...@@@@@@@@@@@@@@@@@@@@@@@@@@@@@@@@@$$$$...           ",
"          ...@@@@@@@@@@@@@@@@@@@@@@@@@@@@@@@@@$$$$...           ",
"             .....................................              ",
"             .....................................              "
};
