/* XPM */
static char * 6_xpm[] = {
"64 64 3 1",
" 	c None",
".	c #000000",
"+	c #FFFFFF",
"                                                                ",
"                                                                ",
"    ........................................................    ",
"    ........................................................    ",
"  ..++++++++++++++++++++++++++++++++++++++++++++++++++++++++..  ",
"  ..++++++++++++++++++++++++++++++++++++++++++++++++++++++++..  ",
"  ..++++++++++++++++++++++++++++++++++++++++++++++++++++++++..  ",
"  ..++++++++++++++++++++++++++++++++++++++++++++++++++++++++..  ",
"  ..++++++++++++++++++++++++++++++++++++++++++++++++++++++++..  ",
"  ..++++++++++++++++++++++++++++++++++++++++++++++++++++++++..  ",
"  ..++++++++++++++++++++++++++++++++++++++++++++++++++++++++..  ",
"  ..++++++++++++++++++++++++++++++++++++++++++++++++++++++++..  ",
"  ..++++++++........................................++++++++..  ",
"  ..++++++++........................................++++++++..  ",
"  ..++++++++........................................++++++++..  ",
"  ..++++++++........................................++++++++..  ",
"  ..++++++++........................................++++++++..  ",
"  ..++++++++........................................++++++++..  ",
"  ..++++++++........................................++++++++..  ",
"  ..++++++++........................................++++++++..  ",
"  ..++++++++........++++++++++++++++++++++++++++++++++++++++..  ",
"  ..++++++++........++++++++++++++++++++++++++++++++++++++++..  ",
"  ..++++++++........++++++++++++++++++++++++++++++++++++++++..  ",
"  ..++++++++........++++++++++++++++++++++++++++++++++++++++..  ",
"  ..++++++++........++++++++++++++++++++++++++++++++++++++++..  ",
"  ..++++++++........++++++++++++++++++++++++++++++++++++++++..  ",
"  ..++++++++........++++++++++++++++++++++++++++++++++++++++..  ",
"  ..++++++++........++++++++++++++++++++++++++++++++++++++++..  ",
"  ..++++++++........................................++++++++..  ",
"  ..++++++++........................................++++++++..  ",
"  ..++++++++........................................++++++++..  ",
"  ..++++++++........................................++++++++..  ",
"  ..++++++++........................................++++++++..  ",
"  ..++++++++........................................++++++++..  ",
"  ..++++++++........................................++++++++..  ",
"  ..++++++++........................................++++++++..  ",
"  ..++++++++........++++++++++++++++++++++++........++++++++..  ",
"  ..++++++++........++++++++++++++++++++++++........++++++++..  ",
"  ..++++++++........++++++++++++++++++++++++........++++++++..  ",
"  ..++++++++........++++++++++++++++++++++++........++++++++..  ",
"  ..++++++++........++++++++++++++++++++++++........++++++++..  ",
"  ..++++++++........++++++++++++++++++++++++........++++++++..  ",
"  ..++++++++........++++++++++++++++++++++++........++++++++..  ",
"  ..++++++++........++++++++++++++++++++++++........++++++++..  ",
"  ..++++++++........................................++++++++..  ",
"  ..++++++++........................................++++++++..  ",
"  ..++++++++........................................++++++++..  ",
"  ..++++++++........................................++++++++..  ",
"  ..++++++++........................................++++++++..  ",
"  ..++++++++........................................++++++++..  ",
"  ..++++++++........................................++++++++..  ",
"  ..++++++++........................................++++++++..  ",
"  ..++++++++++++++++++++++++++++++++++++++++++++++++++++++++..  ",
"  ..++++++++++++++++++++++++++++++++++++++++++++++++++++++++..  ",
"  ..++++++++++++++++++++++++++++++++++++++++++++++++++++++++..  ",
"  ..++++++++++++++++++++++++++++++++++++++++++++++++++++++++..  ",
"  ..++++++++++++++++++++++++++++++++++++++++++++++++++++++++..  ",
"  ..++++++++++++++++++++++++++++++++++++++++++++++++++++++++..  ",
"  ..++++++++++++++++++++++++++++++++++++++++++++++++++++++++..  ",
"  ..++++++++++++++++++++++++++++++++++++++++++++++++++++++++..  ",
"    ........................................................    ",
"    ........................................................    ",
"                                                                ",
"                                                                "};
