/* XPM */
static char *a84166b8816e44dcee64796b8a2531fex4MOOmZDBk1hq7j4[] = {
/* columns rows colors chars-per-pixel */
"64 64 6 1 ",
"  c None",
". c black",
"X c #880015",
"o c #ED1C24",
"O c #C8BFE7",
"+ c white",
/* pixels */
"                                                                ",
"                                                                ",
"                                                                ",
"                                                                ",
"                                                                ",
"                                                                ",
"                                                                ",
"                                                                ",
"                                                                ",
"                                                                ",
"                                                                ",
"                                                                ",
"                                                                ",
"                                                                ",
"                                                                ",
"                                                                ",
"                                                                ",
"                                                                ",
"                                                                ",
"                                                                ",
"                          ............                          ",
"                     ......................                     ",
"                     ......................                     ",
"                  ............................                  ",
"                  ............................                  ",
"                ................................                ",
"                ................................                ",
"                ..OOO......................+++..                ",
"                ..OOOOO.................o+++++..                ",
"                ..OOOOO.................o+++++..                ",
"                ..OOOOOXXXOO........++ooo+++++..                ",
"                ..OOOOOXXXOO........++ooo+++++..                ",
"                ..OOOOOXXXOOOOOOO+++++ooo+++++..                ",
"                ..OOOOOXXXOOOOOOO+++++ooo+++++..                ",
"                ..OOOOOXXXOOOOOOO+++++ooo+++++..                ",
"                ..OOOOOXXXOOOOOOO+++++ooo+++++..                ",
"                ..OOOOOXXXOOOOOOO+++++ooo+++++..                ",
"                ..OOOOOXXXOOOOOOO+++++ooo+++++..                ",
"                ..OOOOOXXXOOOOOOO+++++ooo+++++..                ",
"                ..OOOOOXXXOOOOOOO+++++ooo+++++..                ",
"                ..OOOOOXXXOOOOOOO+++++ooo+++++..                ",
"                  ...OOXXXOOOOOOO+++++ooo++...                  ",
"                  ...OOXXXOOOOOOO+++++ooo++...                  ",
"                     ...XXOOOOOOO+++++oo...                     ",
"                        ....OOOOO+++....                        ",
"                        ....OOOOO+++....                        ",
"                            ........                            ",
"                            ........                            ",
"                                                                ",
"                                                                ",
"                                                                ",
"                                                                ",
"                                                                ",
"                                                                ",
"                                                                ",
"                                                                ",
"                                                                ",
"                                                                ",
"                                                                ",
"                                                                ",
"                                                                ",
"                                                                ",
"                                                                ",
"                                                                "
};
