/* XPM */
static char *f4c70be96dfe49c688066e11d9b0213dzCZDxvhNhlu2NfqF[] = {
/* columns rows colors chars-per-pixel */
"64 80 4 1 ",
"  c None",
". c black",
"X c #491E49",
"o c #612C61",
/* pixels */
"                            ........                            ",
"                        ....oooooooo....                        ",
"                     ...oooooooooooooooo..                      ",
"                    .ooooo...........ooooo.                     ",
"                  ..oooo..ooooooooooo...ooo..                   ",
"                 .oooo..oo..oooooooo.ooo.oooo..                 ",
"                .oooo.oo.....oo.........o..oooo                 ",
"              ..ooo..o.......o............o.ooo..               ",
"             .oooo.oo..oooo.........oooo...o.oooo.              ",
"            .oooo.o.....oooo........oooo....o..ooo.             ",
"           .ooo..o.....ooooo...o...ooooo.....o.oooo.            ",
"          .ooo..o.......ooooo.ooo.ooooo......oo..ooo.           ",
"         .ooo...o.........ooo..o..ooo........oo...ooo.          ",
"         oooo...o............................oo....ooo.         ",
"        .ooo..o.o..........o.......o..........oo...oooo         ",
"        .oo.o.o.o.........ooo.....ooo.........oo..o.ooo         ",
"       .ooo.o.o.o.............ooo.............o...o.ooo.        ",
"       .oo.oooo.o..............o..............o...o..oo.        ",
"      .ooo.o.........................................ooo.       ",
"      .oo.ooooooooo........................oooooooooo.oo.       ",
"X.............................................................X ",
".ooooooooooooooooooooooooooooooooooooooooooooooooooooooooooooo. ",
" ............o.o.ooooooooooooooooooooooo.oooooo.oo............  ",
"  ............................................................  ",
" .oooooooooooo.................................o.ooooooooooooo  ",
".oooooooooooooo.................................oooooooooooooo. ",
".ooo........ooo.................................ooo........ooo. ",
" .o.oooooooo.o.................................X.oooooooooo.oo  ",
"  ............X................................X..............  ",
"  ..oooooooo..X................................X...oooooooo..   ",
"  .oooooooooo.X................................X...ooooooooo.   ",
"  ............X................................X.............   ",
"   .X..XXX.X..X................................X..Xo.o.o.oo.    ",
"   .o..ooo.o..X................................X..Xo.o.o.oo.    ",
"   .o..ooo.o..X................................X..Xo.o.o.oo.    ",
"   .o..ooo.o..X................................X.XXo.o.o.oo.    ",
"   .o..ooo.o..X................................X.XXo.o.o.oo.    ",
"   .o..ooo.o..X................................X..Xo.o.o.oo.    ",
"   .o..ooo.o.XX................................X.XXo.o.o.oo.    ",
"   .o..ooo.o..X................................X..Xo.o.o.oo.    ",
"   .o..ooo.o.XX................................X..Xo.o.o.oo.    ",
"   .o..ooo.o..X................................X.XXo.o.o.oo.    ",
"   .o..ooo.o.XX................................X.XXo.o.o.oo.    ",
"   .o..ooo.o.XX................................XXXXo.o.o.oo.    ",
"   .o..ooo.o.XX................................XXXXo.o.o.oo.    ",
"   .o..ooo.o.XX................................X.XXo.o.o.oo.    ",
"   .o..ooo.o.XX................................XXXXo.o.o.oo.    ",
"   .o..ooo.o.XX................................XXXXo.o.o.oo.    ",
"   .o..ooo.o.XX................................XXXXo.o.o.oo.    ",
"   .o..ooo.o.XX................................XXXXo.o.o.oo.    ",
"   .o..ooo.o.XX................................XXXXo.o.o.oo.    ",
"   .o..ooo.o.XX................................XXXXo.o.o.oo.    ",
"   .o..ooo.o.XX................................XXXXo.o.o.oo.    ",
"   .o..ooo.o.XX................................XXXXo.o...oo.    ",
"   .o..ooo.o.XX................................XXXXo.o...oo.    ",
"   .o..ooo.o.XX................................XXXXo.o.o.oo.    ",
"   .o..ooo.o.XX................................XXXXo.o.o.oo.    ",
"   .o..ooo.o.XX................................XXXXo.o.o.oo.    ",
"   .o..ooo.o.XX................................XXXXo.o.o.oo.    ",
"   .o..ooo.o.XX................................XXXXo.o.o.oo.    ",
"   .o..ooo.o.XX................................XXXXo.o.o.oo.    ",
"   .o..o.o.o.XX................................XXXXo.o.o.oo.    ",
"   .o..o.o.o.XX................................XXXXo.o.o.oo.    ",
"   .o..o.o.o.XX................................XXXXo.o.o.oo.    ",
"   .o..o.o.o.XX................................XXXXo.o.o.oo.    ",
"   .o..o.o.o.XX................................XXXXo.o.o.oo.    ",
"   .o....o...XX................................XXXXo.o.o.oo.    ",
"   .o....o...XX................................XXXXo.o.o.oo.    ",
"   .o....o...XX................................XXXXo.o...oo.    ",
"  ...........XX................................XXX...........   ",
"  .ooooooooooXX................................XXXoooooooooo.   ",
"  ..oooooooo.XX................................XXX.oooooooo..   ",
" .............X................................XX.............  ",
"..o.oooooooo.o.................................X.o.oooooooo.o.. ",
".ooo........ooo..oo.o..ooooooooooooooooooo......ooo........ooo. ",
".oooooooooooooo..................................ooooooooooooo. ",
"...............ooooooooooooooooooooooooooooooooo............... ",
"  ...........................................................   ",
"  .oooooooo..ooooooooooooooooooooooooooooooooooooo..oooooooo.   ",
"  ...........................................................   "
};
