/* XPM */
static char *_69b493b2c4a4d19cb3553a591261db2C7Lri8LVkIjO6MRl[] = {
/* columns rows colors chars-per-pixel */
"64 64 3 1 ",
"  c None",
". c black",
"X c #C0C0C0",
/* pixels */
"                                                                ",
"                                                                ",
"                                                                ",
"                                                                ",
"                                                                ",
"                                                                ",
"                                                                ",
"                                                                ",
"                                                                ",
"                                                                ",
"                                                                ",
"                                                                ",
"                                                                ",
"                                                                ",
"                  ...                                           ",
"                 .XXX.                                          ",
"                .XXXXX.                                         ",
"               .XXXXXXX.                                        ",
"               .XXXXXXX.                                        ",
"              .XXXXXXXX.                                        ",
"              .XXXXXXXXX.                                       ",
"             ..XXXXXXXXX.                                       ",
"            .XXXXXXXXXXX.                                       ",
"           .XXXXXXXXXXXX.                                       ",
"           .XXXXXXXXXXXX.   ...                                 ",
"           .XXXXX...XXXX.  .XXX.                                ",
"            .XXXX.X.XXXX. .XXXXX.                               ",
"             .XXX...XXXXX.XXXXXX.   .....                       ",
"             .XXXXXX...XXXXXXXXX.  .XXXXX..                     ",
"             .XX.XXX.X.XXXXXXXXX. .XXXXXXXX.                    ",
"             .XX.XXX...XXXXXXXX. .XXX...XXXX.                   ",
"             .XX.XXXXXXXXXXXX.. .XXXX.X.XXXXX.                  ",
"            .XXX..XXX..XXXXXXX. .XXXX......XX.                  ",
"            .XXXX.....XXXXXXXXX..XXX.XXX.X.XX.                  ",
"            .XXXX....XXXXXXXXXX..XXX.XXX...XX.                  ",
"             .XXXXXXXXXXXXXXXXX.XXXX.XXXXXXX.                   ",
"             .XXXXXXXXXXXXXXXXX.XXXX.....XX.                    ",
"              .XXXXXXXXXXXXXXXXXXXXXX...XX.                     ",
"               .XXXXXXXXXXXXXXXXXXXXXXXXX.                      ",
"                .XXXXXXXXXXXXXXXXXXXXXXXX.                      ",
"                 .XXXXXXXXXXXXXXX.XXXXXXX.                      ",
"                 .XXXXXX..XXXXXXX.XXXXXX.                       ",
"               ....XXXXX...XXXX...XXXXXXX.     ...              ",
"              .XXX.XXXXX..........XXXXXXXX.  ..XXX.             ",
"             .XXXXXXXXXX.........XXXXXXXXX...XXXXXX.            ",
"            .XXXXXXXXXXXX..X.X...XXXXXXXXX.XXXXXXXXX.           ",
"            .XXXXXXXXXXXX..X.X...XXXXXXXXXXXXXXXXXXX.           ",
"             .XXXXXXXXXXX..X.X...XXXXXXXXXXXXXXXXXXX.           ",
"              .XXXXXXXXXX.........XXXXXXXXXXXXXX.XX.            ",
"               .XXXXXXXX..........XXXXXXXXXXXXXX...             ",
"               .XXXXXXXX..........XXXXXXXXXXXXX.                ",
"               .XXXXXXXX.....X.....XXXXXXXXXXXX.                ",
"              .XXXXXXXX....X.XXX....XXXXXXXXXXX.                ",
"             .XXXXXXXXXXXXXXXXXXXXXXXXXXXXXXXXX.                ",
"            ..XXXXXXXXXXXXXXXXXXXXXXXXXXXXXXXXX.                ",
"           .XXXXXXXXXXXXXXXXXXXXXXXXXXXXXXXXXXX.                ",
"          .XXXXXXXXXXXXXXXXXXXXXXXXXXXXXXXXXXXX.                ",
"           ..XXXXXXXXXXXXXXXXXXXXXXXXXXXXXXXXX.                 ",
"             ...XXXXXXXXXXXXXXXXXXXXXXXXXXXXXX..                ",
"                ...XXXXXXXXXXXXXXXXXXXXXXXXXXXXX.               ",
"                  .XXXXXXXX.XXXXXXXXXXXXXXXXXXXX.               ",
"                   .XXXXXX. ...XXXXXXXXXXXXXXXX.                ",
"                    ......     ..XXXXXXXXXXX...                 ",
"                                 ...........                    "
};
