/* XPM */
static char *result[] = {
/* columns rows colors chars-per-pixel */
"64 64 5 1 ",
"  c black",
". c #84357D",
"X c #85357E",
"o c #A349A4",
"O c None",
/* pixels */
"OOOOOOOOOOOOOOOOOOOOOOOOOOOOOOOOOOOOOOOOOOOOOOOOOOOOOOOOOOOOOOOO",
"OOOOOOOOOOOOOOOOOOOOOOOOOOOOOOOOOOOOOOOOOOOOOOOOOOOOOOOOOOOOOOOO",
"OOOOOO                                                          ",
"OOOOOO                                                          ",
"OOOO  oooooooooooooooooooooooooooooooooooooooooooooooooooooooooo",
"OOOO  oooooooooooooooooooooooooooooooooooooooooooooooooooooooooo",
"OO  oooooooooXXXXXXXXXXXXXXXXXXXXXXXXXXXXXXXXXXXXXXXXXXXXXXXXXXX",
"OO  ooooooooXXXXXXXXXXXXXXXXXXXXXXXXXXXXXXXXXXXXXXXXXXXXXXXXXXXX",
"     ooooooXXXXXXXXXXXXXXXXXXXXXXXXXXXXXXXXXXXXXXXXXXXXXXXXXXXXX",
"     oooooXXXXXXXXXXXXXXXXXXXXXXXXXXXXXXXXXXXXXXXXXXXXXXXXXXXXXX",
"  ooo  ooXXXXXXXXXXXXXXXXXXXXXXXXXXXXXXXXXXXXXXXXXXXXXXXXXXXXXXX",
"  ooo  ooXXXXXXXXXXXXXXXXXXXXXXXXXXXXXXXXXXXXXXXXXXXXXXXXXXXXXXX",
"  ooooo                                                         ",
"  ooooo                                                         ",
"  ooooooo..........  ....................  ...................  ",
"  ooooooo..........  ....................  ...................  ",
"  ooooooo..........  ....................  ...................  ",
"  ooooooo..........  ....................  ...................  ",
"  ooooooo............  ....................  ...................",
"     oooo............  ....................  ...................",
"     oooo............  ....................  ...................",
"  ooo  oo............  ....................  ...................",
"  ooo  oo............  ....................  ...................",
"  ooooo                                                         ",
"  ooooo                                                         ",
"  ooooooo  ...................  ...................  ...........",
"  ooooooo  ...................  ...................  ...........",
"  ooooooo  ...................  ...................  ...........",
"  ooooooo  ...................  ...................  ...........",
"     oooo..  ...................  ...................  .........",
"     oooo..  ...................  ...................  .........",
"  ooo  oo..  ...................  ...................  .........",
"  ooo  oo..  ...................  ...................  .........",
"  ooooo                                                         ",
"  ooooo                                                         ",
"  ooooooo..........  ....................  ...................  ",
"  ooooooo..........  ....................  ...................  ",
"  ooooooo..........  ....................  ...................  ",
"  ooooooo..........  ....................  ...................  ",
"     oooo............  ....................  ...................",
"     oooo............  ....................  ...................",
"  ooo  oo............  ....................  ...................",
"  ooo  oo............  ....................  ...................",
"  ooooo  ............  ....................  ...................",
"  ooooo                                                         ",
"  ooooooo                                                       ",
"  ooooooo  ...................  ...................  ...........",
"  ooooooo  ...................  ...................  ...........",
"  ooooooo  ...................  ...................  ...........",
"  ooooooo  ...................  ...................  ...........",
"     oooo..  ...................  ...................  .........",
"     oooo..  ...................  ...................  .........",
"  ooo  oo..  ...................  ...................  .........",
"  ooo  oo..  ...................  ...................  .........",
"  ooooo                                                         ",
"  ooooo                                                         ",
"  ooooooo..........  ....................  ...................  ",
"  ooooooo..........  ....................  ...................  ",
"  ooooooo..........  ....................  ...................  ",
"  ooooooo..........  ....................  ...................  ",
"     oooo............  ....................  ...................",
"     oooo............  ....................  ...................",
"  ooo  oo............  ....................  ...................",
"  ooo  oo............  ....................  ..................."
};
