/* XPM */
static char *bb470824041a429ddc0c089ad65da4f6zEdukDEIdAi48liT[] = {
/* columns rows colors chars-per-pixel */
"64 64 5 1 ",
"  c None",
". c black",
"X c #84357D",
"o c #85357E",
"O c #A349A4",
/* pixels */
"..OOOO..........................................................",
"..OOOO..........................................................",
"..OOOOOOO..XXXXXXXXXXXXXXXXXXX..XXXXXXXXXXXXXXXXXXX..XXXXXXXXXXX",
"..OOOOOOO..XXXXXXXXXXXXXXXXXXX..XXXXXXXXXXXXXXXXXXX..XXXXXXXXXXX",
"..OOOOOOO..XXXXXXXXXXXXXXXXXXX..XXXXXXXXXXXXXXXXXXX..XXXXXXXXXXX",
"..OOOOOOO..XXXXXXXXXXXXXXXXXXX..XXXXXXXXXXXXXXXXXXX..XXXXXXXXXXX",
"....OOOOOXX..XXXXXXXXXXXXXXXXXXX..XXXXXXXXXXXXXXXXXXX..XXXXXXXXX",
"....OOOOOXX..XXXXXXXXXXXXXXXXXXX..XXXXXXXXXXXXXXXXXXX..XXXXXXXXX",
"..OO..OOOXX..XXXXXXXXXXXXXXXXXXX..XXXXXXXXXXXXXXXXXXX..XXXXXXXXX",
"..OO..OOOXX..XXXXXXXXXXXXXXXXXXX..XXXXXXXXXXXXXXXXXXX..XXXXXXXXX",
"..OOOO..........................................................",
"..OOOO..........................................................",
"..OOOOOOOXXXXXXXXXX..XXXXXXXXXXXXXXXXXXXX..XXXXXXXXXXXXXXXXXXX..",
"..OOOOOOOXXXXXXXXXX..XXXXXXXXXXXXXXXXXXXX..XXXXXXXXXXXXXXXXXXX..",
"..OOOOOOOXXXXXXXXXX..XXXXXXXXXXXXXXXXXXXX..XXXXXXXXXXXXXXXXXXX..",
"..OOOOOOOXXXXXXXXXX..XXXXXXXXXXXXXXXXXXXX..XXXXXXXXXXXXXXXXXXX..",
"..OOOOOOOXXXXXXXXXX..XXXXXXXXXXXXXXXXXXXX..XXXXXXXXXXXXXXXXXXX..",
"....OOOOOXXXXXXXXXXXX..XXXXXXXXXXXXXXXXXXXX..XXXXXXXXXXXXXXXXXXX",
"....OOOOOXXXXXXXXXXXX..XXXXXXXXXXXXXXXXXXXX..XXXXXXXXXXXXXXXXXXX",
"..OO..OOOXXXXXXXXXXXX..XXXXXXXXXXXXXXXXXXXX..XXXXXXXXXXXXXXXXXXX",
"..OO..OOOXXXXXXXXXXXX..XXXXXXXXXXXXXXXXXXXX..XXXXXXXXXXXXXXXXXXX",
"..OOOO..........................................................",
"..OOOO..........................................................",
"..OOOOOOO..XXXXXXXXXXXXXXXXXXX..XXXXXXXXXXXXXXXXXXX..XXXXXXXXXXX",
"..OOOOOOO..XXXXXXXXXXXXXXXXXXX..XXXXXXXXXXXXXXXXXXX..XXXXXXXXXXX",
"..OOOOOOO..XXXXXXXXXXXXXXXXXXX..XXXXXXXXXXXXXXXXXXX..XXXXXXXXXXX",
"..OOOOOOO..XXXXXXXXXXXXXXXXXXX..XXXXXXXXXXXXXXXXXXX..XXXXXXXXXXX",
"....OOOOOXX..XXXXXXXXXXXXXXXXXXX..XXXXXXXXXXXXXXXXXXX..XXXXXXXXX",
"....OOOOOXX..XXXXXXXXXXXXXXXXXXX..XXXXXXXXXXXXXXXXXXX..XXXXXXXXX",
"..OO..OOOXX..XXXXXXXXXXXXXXXXXXX..XXXXXXXXXXXXXXXXXXX..XXXXXXXXX",
"..OO..OOOXX..XXXXXXXXXXXXXXXXXXX..XXXXXXXXXXXXXXXXXXX..XXXXXXXXX",
"..OOOO..........................................................",
"..OOOO..........................................................",
"..OOOOOOOXXXXXXXXXX..XXXXXXXXXXXXXXXXXXXX..XXXXXXXXXXXXXXXXXXX..",
"..OOOOOOOXXXXXXXXXX..XXXXXXXXXXXXXXXXXXXX..XXXXXXXXXXXXXXXXXXX..",
"..OOOOOOOXXXXXXXXXX..XXXXXXXXXXXXXXXXXXXX..XXXXXXXXXXXXXXXXXXX..",
"..OOOOOOOXXXXXXXXXX..XXXXXXXXXXXXXXXXXXXX..XXXXXXXXXXXXXXXXXXX..",
"....OOOOOXXXXXXXXXXXX..XXXXXXXXXXXXXXXXXXXX..XXXXXXXXXXXXXXXXXXX",
"....OOOOOXXXXXXXXXXXX..XXXXXXXXXXXXXXXXXXXX..XXXXXXXXXXXXXXXXXXX",
"..OO..OOOXXXXXXXXXXXX..XXXXXXXXXXXXXXXXXXXX..XXXXXXXXXXXXXXXXXXX",
"..OO..OOOXXXXXXXXXXXX..XXXXXXXXXXXXXXXXXXXX..XXXXXXXXXXXXXXXXXXX",
"..OOOO..........................................................",
"..OOOO..........................................................",
"..OOOOOOO..XXXXXXXXXXXXXXXXXXX..XXXXXXXXXXXXXXXXXXX..XXXXXXXXXXX",
"..OOOOOOO..XXXXXXXXXXXXXXXXXXX..XXXXXXXXXXXXXXXXXXX..XXXXXXXXXXX",
"..OOOOOOO..XXXXXXXXXXXXXXXXXXX..XXXXXXXXXXXXXXXXXXX..XXXXXXXXXXX",
"..OOOOOOO..XXXXXXXXXXXXXXXXXXX..XXXXXXXXXXXXXXXXXXX..XXXXXXXXXXX",
"....OOOOOXX..XXXXXXXXXXXXXXXXXXX..XXXXXXXXXXXXXXXXXXX..XXXXXXXXX",
"....OOOOOXX..XXXXXXXXXXXXXXXXXXX..XXXXXXXXXXXXXXXXXXX..XXXXXXXXX",
"....OOOOOXX..XXXXXXXXXXXXXXXXXXX..XXXXXXXXXXXXXXXXXXX..XXXXXXXXX",
"..OO..OOOXX..XXXXXXXXXXXXXXXXXXX..XXXXXXXXXXXXXXXXXXX..XXXXXXXXX",
"..OO..OOOXX..XXXXXXXXXXXXXXXXXXX..XXXXXXXXXXXXXXXXXXX..XXXXXXXXX",
"..OOOO..........................................................",
"..OOOO..........................................................",
"..OOOOOOOXXXXXXXXXXXXXXXXXXXXXXXXXXXXXXXXXXXXXXXXXXXXXXXXXXXXXXX",
"..OOOOOOOXXXXXXXXXXXXXXXXXXXXXXXXXXXXXXXXXXXXXXXXXXXXXXXXXXXXXXX",
"..OOOOOOOXXXXXXXXXXXXXXXXXXXXXXXXXXXXXXXXXXXXXXXXXXXXXXXXXXXXXXX",
"..OOOOOOOXXXXXXXXXXXXXXXXXXXXXXXXXXXXXXXXXXXXXXXXXXXXXXXXXXXXXXX",
"  ..OOOOOXXXXXXXXXXXXXXXXXXXXXXXXXXXXXXXXXXXXXXXXXXXXXXXXXXXXXXX",
"  ..OOOOOXXXXXXXXXXXXXXXXXXXXXXXXXXXXXXXXXXXXXXXXXXXXXXXXXXXXXXX",
"    ..OOOXXXXXXXXXXXXXXXXXXXXXXXXXXXXXXXXXXXXXXXXXXXXXXXXXXXXXXX",
"    ..OOOXXXXXXXXXXXXXXXXXXXXXXXXXXXXXXXXXXXXXXXXXXXXXXXXXXXXXXX",
"      ..........................................................",
"      .........................................................."
};
