/* XPM */
static char *a927df66abe44464db43ada6a38ff72cwdLlF69bk79lI3ip[] = {
/* columns rows colors chars-per-pixel */
"64 64 2 1 ",
"  c None",
". c white",
/* pixels */
"                                                                ",
"                                                                ",
"                                                                ",
"                                                                ",
"                                                                ",
"                                                                ",
"                                                                ",
"                                                                ",
"                                                                ",
"                                                                ",
"                                                                ",
"                                                                ",
"                                                                ",
"                                                                ",
"                                                                ",
"                                                                ",
"                                                                ",
"                                                                ",
"                                                                ",
"                                                                ",
"                                                                ",
"                                                                ",
"    ......          ......          ......       ......         ",
"    ........       ........        ........      .......        ",
"    ..    ...     ...     ..      ...     ..     ..   ...       ",
"    ..     ..    ..        ..    ..        ..    ..    ..       ",
"    ..     ...  ...        ...  ...        ...   ..    ..       ",
"    ..      ..  ..          ..  ..          ..   ..   ...       ",
"    ..      ..  ..          ..  ..          ..   .......        ",
"    ..      ..  ..          ..  ..          ..   ......         ",
"    ..      ..  ..          ..  ..          ..   .. ..          ",
"    ..     ...  ...        ...  ...        ...   .. ...         ",
"    ..     ..    ..        ..    ..        ..    ..  ...        ",
"    ..    ...     ...    ...      ...    ...     ..   ..        ",
"    ........       ........        ........      ..    ..       ",
"    ......          ......          ......       ..    ...      ",
"                                                                ",
"                                                                ",
"                                                                ",
"                                                                ",
"                                                                ",
"                                                                ",
"                                                                ",
"                                                                ",
"                                                                ",
"                                                                ",
"                                                                ",
"                                                                ",
"                                                                ",
"                                                                ",
"                                                                ",
"                                                                ",
"                                                                ",
"                                                                ",
"                                                                ",
"                                                                ",
"                                                                ",
"                                                                ",
"                                                                ",
"                                                                ",
"                                                                ",
"                                                                ",
"                                                                ",
"                                                                "
};
