/* XPM */
static char *_145bd588acc49c286c60219569ab975PedX9q23wloVOsy0[] = {
/* columns rows colors chars-per-pixel */
"64 64 2 1 ",
"  c None",
". c #FEFF03",
/* pixels */
"                                                                ",
"                                                                ",
"                                                                ",
"                                                                ",
"                                                                ",
"                          ..........                            ",
"                      ..................                        ",
"                    ......................                      ",
"                  ..........................                    ",
"                ..............................                  ",
"               ................................                 ",
"             ....................................               ",
"            ......................................              ",
"           ........................................             ",
"          ..........................................            ",
"          ..........................................            ",
"         ............................................           ",
"        ..............................................          ",
"        ..............................................          ",
"       ................................................         ",
"       ................................................         ",
"      ..................................................        ",
"      ..................................................        ",
"     ....................................................       ",
"     ....................................................       ",
"     ....................................................       ",
"     ....................................................       ",
"    ......................................................      ",
"    ......................................................      ",
"    ......................................................      ",
"    ......................................................      ",
"    ......................................................      ",
"    ......................................................      ",
"    ......................................................      ",
"    ......................................................      ",
"    ......................................................      ",
"    ......................................................      ",
"     ....................................................       ",
"     ....................................................       ",
"     ....................................................       ",
"     ....................................................       ",
"      ..................................................        ",
"      ..................................................        ",
"       ................................................         ",
"       ................................................         ",
"        ..............................................          ",
"        ..............................................          ",
"         ............................................           ",
"          ..........................................            ",
"          ..........................................            ",
"           ........................................             ",
"            ......................................              ",
"             ....................................               ",
"               ................................                 ",
"                ..............................                  ",
"                  ..........................                    ",
"                    ......................                      ",
"                      ..................                        ",
"                          ..........                            ",
"                                                                ",
"                                                                ",
"                                                                ",
"                                                                ",
"                                                                "
};
