/* XPM */
static char *_ccd6b38cb48414cf02c789c2a0c46d9mhFgSU8SDc1gFcFk[] = {
/* columns rows colors chars-per-pixel */
"64 64 5 1 ",
"  c None",
". c black",
"X c #84357D",
"o c #85357E",
"O c #A349A4",
/* pixels */
"XXXXXXXXX..XXXXXXXXXXXXXXXXXXX..XXXXXXXXXXXXXXXXXXX..XXOOOOOOO..",
"XXXXXXXXX..XXXXXXXXXXXXXXXXXXX..XXXXXXXXXXXXXXXXXXX..XXOOOOOOO..",
"XXXXXXXXX..XXXXXXXXXXXXXXXXXXX..XXXXXXXXXXXXXXXXXXX..XXOOOOOOO..",
"XXXXXXXXX..XXXXXXXXXXXXXXXXXXX..XXXXXXXXXXXXXXXXXXX..XXOOOOOOO..",
"XXXXXXXXXXX..XXXXXXXXXXXXXXXXXXX..XXXXXXXXXXXXXXXXXXX..OOOOO....",
"XXXXXXXXXXX..XXXXXXXXXXXXXXXXXXX..XXXXXXXXXXXXXXXXXXX..OOOOO....",
"XXXXXXXXXXX..XXXXXXXXXXXXXXXXXXX..XXXXXXXXXXXXXXXXXXX..OOO..OO..",
"XXXXXXXXXXX..XXXXXXXXXXXXXXXXXXX..XXXXXXXXXXXXXXXXXXX..OOO..OO..",
"XXXXXXXXXXX..XXXXXXXXXXXXXXXXXXX..XXXXXXXXXXXXXXXXXXX..OOO..OO..",
"..........................................................OOOO..",
"..........................................................OOOO..",
"XXXXXXXXXXXXXXXXXXX..XXXXXXXXXXXXXXXXXXXX..XXXXXXXXXXXXOOOOOOO..",
"XXXXXXXXXXXXXXXXXXX..XXXXXXXXXXXXXXXXXXXX..XXXXXXXXXXXXOOOOOOO..",
"XXXXXXXXXXXXXXXXXXX..XXXXXXXXXXXXXXXXXXXX..XXXXXXXXXXXXOOOOOOO..",
"XXXXXXXXXXXXXXXXXXX..XXXXXXXXXXXXXXXXXXXX..XXXXXXXXXXXXOOOOOOO..",
"..XXXXXXXXXXXXXXXXXXX..XXXXXXXXXXXXXXXXXXXX..XXXXXXXXXXOOOOO....",
"..XXXXXXXXXXXXXXXXXXX..XXXXXXXXXXXXXXXXXXXX..XXXXXXXXXXOOOOO....",
"..XXXXXXXXXXXXXXXXXXX..XXXXXXXXXXXXXXXXXXXX..XXXXXXXXXXOOO..OO..",
"..XXXXXXXXXXXXXXXXXXX..XXXXXXXXXXXXXXXXXXXX..XXXXXXXXXXOOO..OO..",
"..........................................................OOOO..",
"..........................................................OOOO..",
"XXXXXXXXX..XXXXXXXXXXXXXXXXXXX..XXXXXXXXXXXXXXXXXXX..XXOOOOOOO..",
"XXXXXXXXX..XXXXXXXXXXXXXXXXXXX..XXXXXXXXXXXXXXXXXXX..XXOOOOOOO..",
"XXXXXXXXX..XXXXXXXXXXXXXXXXXXX..XXXXXXXXXXXXXXXXXXX..XXOOOOOOO..",
"XXXXXXXXX..XXXXXXXXXXXXXXXXXXX..XXXXXXXXXXXXXXXXXXX..XXOOOOOOO..",
"XXXXXXXXX..XXXXXXXXXXXXXXXXXXX..XXXXXXXXXXXXXXXXXXX..XXOOOOOOO..",
"XXXXXXXXXXX..XXXXXXXXXXXXXXXXXXX..XXXXXXXXXXXXXXXXXXX..OOOOO....",
"XXXXXXXXXXX..XXXXXXXXXXXXXXXXXXX..XXXXXXXXXXXXXXXXXXX..OOOOO....",
"XXXXXXXXXXX..XXXXXXXXXXXXXXXXXXX..XXXXXXXXXXXXXXXXXXX..OOO..OO..",
"XXXXXXXXXXX..XXXXXXXXXXXXXXXXXXX..XXXXXXXXXXXXXXXXXXX..OOO..OO..",
"..........................................................OOOO..",
"..........................................................OOOO..",
"XXXXXXXXXXXXXXXXXXX..XXXXXXXXXXXXXXXXXXXX..XXXXXXXXXXXXOOOOOOO..",
"XXXXXXXXXXXXXXXXXXX..XXXXXXXXXXXXXXXXXXXX..XXXXXXXXXXXXOOOOOOO..",
"XXXXXXXXXXXXXXXXXXX..XXXXXXXXXXXXXXXXXXXX..XXXXXXXXXXXXOOOOOOO..",
"XXXXXXXXXXXXXXXXXXX..XXXXXXXXXXXXXXXXXXXX..XXXXXXXXXXXXOOOOOOO..",
"..XXXXXXXXXXXXXXXXXXX..XXXXXXXXXXXXXXXXXXXX..XXXXXXXXXXOOOOO....",
"..XXXXXXXXXXXXXXXXXXX..XXXXXXXXXXXXXXXXXXXX..XXXXXXXXXXOOOOO....",
"..XXXXXXXXXXXXXXXXXXX..XXXXXXXXXXXXXXXXXXXX..XXXXXXXXXXOOO..OO..",
"..XXXXXXXXXXXXXXXXXXX..XXXXXXXXXXXXXXXXXXXX..XXXXXXXXXXOOO..OO..",
"..XXXXXXXXXXXXXXXXXXX..XXXXXXXXXXXXXXXXXXXX..XXXXXXXXXXOOO..OO..",
"..........................................................OOOO..",
"..........................................................OOOO..",
"XXXXXXXXX..XXXXXXXXXXXXXXXXXXX..XXXXXXXXXXXXXXXXXXX..XXOOOOOOO..",
"XXXXXXXXX..XXXXXXXXXXXXXXXXXXX..XXXXXXXXXXXXXXXXXXX..XXOOOOOOO..",
"XXXXXXXXX..XXXXXXXXXXXXXXXXXXX..XXXXXXXXXXXXXXXXXXX..XXOOOOOOO..",
"XXXXXXXXX..XXXXXXXXXXXXXXXXXXX..XXXXXXXXXXXXXXXXXXX..XXOOOOOOO..",
"XXXXXXXXXXX..XXXXXXXXXXXXXXXXXXX..XXXXXXXXXXXXXXXXXXX..OOOOO....",
"XXXXXXXXXXX..XXXXXXXXXXXXXXXXXXX..XXXXXXXXXXXXXXXXXXX..OOOOO....",
"XXXXXXXXXXX..XXXXXXXXXXXXXXXXXXX..XXXXXXXXXXXXXXXXXXX..OOO..OO..",
"XXXXXXXXXXX..XXXXXXXXXXXXXXXXXXX..XXXXXXXXXXXXXXXXXXX..OOO..OO..",
"..........................................................OOOO..",
"..........................................................OOOO..",
"XXXXXXXXXXXXXXXXXXXXXXXXXXXXXXXXXXXXXXXXXXXXXXXXXXXXXXXOOOOOOO..",
"XXXXXXXXXXXXXXXXXXXXXXXXXXXXXXXXXXXXXXXXXXXXXXXXXXXXXXXOOOOOOO..",
"XXXXXXXXXXXXXXXXXXXXXXXXXXXXXXXXXXXXXXXXXXXXXXXXXXXXXXXOOOOOOO..",
"XXXXXXXXXXXXXXXXXXXXXXXXXXXXXXXXXXXXXXXXXXXXXXXXXXXXXXXOOOOOOO..",
"XXXXXXXXXXXXXXXXXXXXXXXXXXXXXXXXXXXXXXXXXXXXXXXXXXXXXXXOOOOOOO..",
"XXXXXXXXXXXXXXXXXXXXXXXXXXXXXXXXXXXXXXXXXXXXXXXXXXXXXXXOOOOO..  ",
"XXXXXXXXXXXXXXXXXXXXXXXXXXXXXXXXXXXXXXXXXXXXXXXXXXXXXXXOOOOO..  ",
"XXXXXXXXXXXXXXXXXXXXXXXXXXXXXXXXXXXXXXXXXXXXXXXXXXXXXXXOOO..    ",
"XXXXXXXXXXXXXXXXXXXXXXXXXXXXXXXXXXXXXXXXXXXXXXXXXXXXXXXOOO..    ",
"..........................................................      ",
"..........................................................      "
};
