/* XPM */
static char *result[] = {
/* columns rows colors chars-per-pixel */
"64 98 9 1 ",
"  c black",
". c #170D2B",
"X c #523429",
"o c #1B215A",
"O c #362F79",
"+ c #784D74",
"@ c #555BB1",
"# c #B596AC",
"$ c None",
/* pixels */
"$$$$$$$$$$$$$$$$$$$$$$$$$$$$$$$      $$$$$$$$$$$$$$$$$$$$$$$$$$$",
"$$$$$$$$$$$$$$$$$$$$$$$$$$$$$$ @@@@@@   $$$$$$$$$$$$$$$$$$$$$$$$",
"$$$$$$$$$$$$$$$$$$$$$$$$$$$$$ @@@@@@@@@@ $$$$$$$$$$$$$$$$$$$$$$$",
"$$$$$$$$$$$$$$$$$$$$$$$$$$$$$ @@@@@@@@@@ $$$$$$$$$$$$$$$$$$$$$$$",
"$$$$$$$$$$$$$$$$$$$$$$$$$$$$ @@@@@@@@@@@@ $$$$$$$$$$$$$$$$$$$$$$",
"$$$$$$$$$$$$$$$$$$$$$$$$$$$$ @@@@@@@@@@@ $$$$$$$$$$$$$$$$$$$$$$$",
"$$$$$$$$$$$$$$     $$$$$$$$$ @@@@@@     $$$$$$$$$$$$$$$$$$$$$$$$",
"$$$$$$$$$$$$$ @@@@@    $$$$$$ ooo@@  $$$$$$$$$$     $$$$$$$$$$$$",
"$$$$$$$$$$$$ @@@@@@@@@@       o@@@@@@    $$    @@@@@ $$$$$$$$$$$",
"$$$$$$$$$$$$ @@@@@@@@@@       o@@@@@@    $$    @@@@@ $$$$$$$$$$$",
"$$$$$$$$$$$$ @@@oo@@@@o@@@@@@@@@@@@@@@@@@  oo@@@@@@@@ $$$$$$$$$$",
"$$$$$$$$$$$$ @@@ooooooo@@@@@@@@@@@@@@@@@@@@ooo@@ooo@@ $$$$$$$$$$",
"$$$$$$$$$$$$ @@@ooooo@@@@@@@@@@@@@@@@@@@@@@@@@ooooo@@ $$$$$$$$$$",
"$$$$$$$$$$$$ @@@ooo@@@@@@@@@@@@@@@@@@@@@@@@@@@@oooo@@ $$$$$$$$$$",
"$$$$$$$$$$$$ @@@ooo@@@@@@@@@@@@@@@@@@@@@@@@@@@@oooo@@ $$$$$$$$$$",
"$$$$$$$$$$$$ @oooo@@@@@@@@@@@@@oo@@@@@@@@@@@@@@@ooo@@ $$$$$$$$$$",
"$$$$$$$$$$$$ @ooo@@@@@@@@@@@@@ooo@@@@@@@@@@@@@@@@@oo@ $$$$$$$$$$",
"$$$$$$$$$$$$$ oo@@@@@@@@@@@@@@oooo@@@@@@@@@@@@@@@@@o@ $$$$$$$$$$",
"$$$$$$$$$$$$$ @@@@@@@@@@@@@@@@o@@o@@@@@@@@@@@@@@@@@o $$$$$$$$$$$",
"$$$$$$$$$$$$$ @@@@@@@@@@@@@@@o@@@o@@@@@@@@@@@@@@@@@o $$$$$$$$$$$",
"$$$$$$$$$$$$$ @@@@@@@@@@@@@@@o@@@o@@@@@@@@@@@@@@@@@o $$$$$$$$$$$",
"$$$$$$$$$$$$ @@@@@@@@@@@@@@@@o@@@@o@@@@@@@@@@@@@@@@@ $$$$$$$$$$$",
"$$$$$$$$$$$$ @@@@@@@@@@@@@@@o@@@@@o@@@@@@@@@@@@@@@@@ $$$$$$$$$$$",
"$$$$$$$$$$$ @@@@@@@@@@@@@@@o@@@@@@@o@@@@@@@@@@@@@@@@@ $$$$$$$$$$",
"$$$$$$$$$$$ @@@@@@@@@@@@@oo@@@@@@@@o@@@@@@@@@@@@@@@@@ $$$$$$$$$$",
"$$$$$$$$$$ @@@@@@@@@@@@@o@@@@@@@@@@@o@@@@@@@@@@@@@@@@ $$$$$$$$$$",
"$$$$$$$$$$ @@@@@@@@@@@@@o@@@@@@@@@@@o@@@@@@@@@@@@@@@@ $$$$$$$$$$",
"$$$$$$$   o@@@@@@@@oo@@o@@@@@@@@@@@@@oo@@@@@@@@@@@@@@@  $$$$$$$$",
"$$$$$  @@@o@@@@@@@@oooo@@@@@@@@@@@@@@@@o@@@@@@o@@@@@@@    $$$$$$",
"$$$$ @@@@@o@@@@@@@@oo@@@@@@@@@@@@@@@@@@@o@@@@oo@@@@@@@oo@@  $$$$",
"$$  @@@@@@@o@@@@@@ooo@@@@@@@@@@@@@@@@@@@@oooo@o@@@@@@@oo@@@@  $$",
"$ @@@@@@@@@o@@@@@@ooo@@@@@@@@@@@@@@@@...@@@@@@o@@@@@@@oo@@@@@@ $",
"$ @@@@@@@@@o@@@@@@ooo@@@@@@@@@@@@@@@@...@@@@@@o@@@@@@@oo@@@@@@ $",
"$ @@@@@@@@@o@@@@@@o@@@@@@...@@@@@@@@.....@@@@@o@@@@@@@oo@@@@@@ $",
" @@@@@@@@@@o@@@@@@o@@@@@.....@@@@@@@.....@@@@@@o@@@@@@oo@@@@@@@ ",
" @@@@@@@@@@o@@@@@@o@@@@@.....@@@@@@@@...@@@@@@@o@@@@@o@@@@@@@@@ ",
" @@@@@@@@@@o@@@@@@o@@@@@@...@@@@@@@@@@@@@@@@@@@o@@@@@o@@@@@@@@@ ",
" @@@@@@@@@@o@@@@@@o@@@@@@...@@@@@@@@@@@@@@@@@@@o@@@@@o@@@@@@@@@ ",
" @@@@@@@@@@o@@@@@@o@@@@@@@@@@@@@@@@@@@@@@@@@@@@o@@@@@o@@@@@@@@@ ",
" @@@@@@@@@@@o@@@@@o@@@@@@@@@@@@@@o@@@@@@@@@@@@Oo@@@@@o@@@@@@@@@ ",
"$ @@@@@@@@@@o@@@@@oOO@@@@@@@@@@@@@@@@@@@@@@@@@oo@@@@o@@@@@@@@@ $",
"$ @@@@@@@@@@@o@@@@ooo@@@@@@@@.@@@.@@.@@@@@@@@@oo@@@@o@@@@@@@@@ $",
"$$  @@@@@@@@@ooo@@ooo@@@@@@@@@...@..@@@@@@@@@@oo@@@o@@@@@@@@@@ $",
"$$  @@@@@@@@@ooo@@ooo@@@@@@@@@...@..@@@@@@@@@@oo@@@o@@@@@@@@@@ $",
"$$$$ @@@@@@@ooooo@oooO@@@@@@@@@@@@@@@@@@@@@@@Oo@@@ooo@@@@@@@  $$",
"$$$$$  @@@ooooooooooooO@@@@@@@@@@@@@@@@@@@@OOooooooooooo@@  $$$$",
"$$$$$$$         ooooooooO@@@@@@@@@@@@@@@@Ooooooooooo      $$$$$$",
"$$$$$$$$$$$$$$  oOOoooooooooo@@@@@@@@ooooooooooOOOoo $$$$$$$$$$$",
"$$$$$$$$$$$$$$$$ OOOOooooooooooooooooooooooooooOOOOO $$$$$$$$$$$",
"$$$$$$$$$$$$$$$$ OOOOooooooooooooooooooooooooooOOOOO $$$$$$$$$$$",
"$$$$$$$$$$$$$$$$ OOOOoooooooooooooooooooooooooOOOOOO $$$$$$$$$$$",
"$$$$$$$$$$$$$$$$ OOOOOoooooooooooooooooooooooOOOOOO $$$$$$$$$$$$",
"$$$$$$$$$$$$$$$$ OOOOOoooooooooooooooooooooooOOOOOO $$$$$$$$$$$$",
"$$$$$$$$$$$$$$$$$ OOOOOoo@@@@oooooooo@@@@ooooOOOOOO $$$$$$$$$$$$",
"$$$$$$$$$$$$$$$$$ OOOoOo@@@@@@@@@@@@@@@@@ooooOOOOOO $$$$$$$$$$$$",
"$$$$$$$$$$$$$$$$$ OOOoOo@@@@@@@@@@@@@@@@@ooooOOOOOO $$$$$$$$$$$$",
"$$$$$$$$$$$$$$$$$$ OOoO @@@@@@@@@@@@@@@@@@oooOoOOO $$$$$$$$$$$$$",
"$$$$$$$$$$$$$$$$$$$  o @@@@@@@@@@@@@@@@@@@oOOOooOO $$$$$$$$$$$$$",
"$$$$$$$$$$$$$$$$$$$$$  @@@@@@@@@@@@@@@@@@@@   oo  $$$$$$$$$$$$$$",
"$$$$$$$$$$$$    $$$$$ o@@@@@@@@@@@@@@@@@@@o  $  $$$$$$$$$$$$$$$$",
"$$$$$$$$$$$ @@@@  $$$ @o@@@@@@@@@@@@@@@@@@@  $$$$$$$$$$$$$$$$$$$",
"$$$$$$$$$$$ @@@@  $$$ @o@@@@@@@@@@@@@@@@@@@  $$$$$$$$$$$$$$$$$$$",
"$$$$$$$$$$ @@@@@@o   o@@@oooo@@@@@@@@@@oo@@  $$$$$$$$$$$$$$$$$$$",
"$$$$$$$$$$ @@@@@@@o  @@@@@@@@@ooooooooo@@@@oo $$$$$$$$$$$$$$$$$$",
"$$$$$$$$$$ @@@@@@@o  @@@@@@@@@@@@@@@@@@@@@@@@ $$$$$$$$$$$$$$$$$$",
"$$$$$$$$$$ o@@@@@@ooo@@@@@@@@@@@@@@@@@@@@@@@@ $$$$$$$$$$$$$$$$$$",
"$$$$$$$$$$ o@@@@@@ooo@@@@@@@@@@@@@@@@@@@@@@@@ $$$$$$$$$$$$$$$$$$",
"$$$$$$$$$$$ @@@@@@o@@@@@@@@@@@@@@@@@@@@@@@@@@@ $$$$$$$$$$$$$$$$$",
"$$$$$$$$$$$$ @@@@@o@@@@@@@@@@@@@@@@@@@@@@@@@@@          $$$$$$$$",
"$$$$$$$$$$$ . oo@@o@@@@@@@@@@@@@@@@@@@@@@@@@@@ ......... $$$$$$$",
"$$$$$$$$$$$ ..   oooo@@@@@@@@@@@@@@@@@@@@@@@@o ......... $$$$$$$",
"$$$$$$$$$$$ .....  oo@@@@@@@@@@@@@@@@@@@@@@@@ .......... $$$$$$$",
"$$$$$$$$$$$ .....  oo@@@@@@@@@@@@@@@@@@@@@@@@ .......... $$$$$$$",
"$$$$$$$$$$$ .......   @@@@@@@@@@@@@@@@@@@@@  ........... $$$$$$$",
"$$$$$$$$$$$ ..........  o@@@@@@@@@@@@@@oo  ............. $$$$$$$",
"$$$$$$$$$$$ ............                 ............... $$$$$$$",
"$$$$$$$$$$$ ............................................ $$$$$$$",
"$$$$$$$$$$$ .XXXXXXXXXXXXXXXXXXXXXXXXXXXXXXXXXXXXXXXXX.. $$$$$$$",
"$$$$$$$$$$$ .XXXXXXXXXXXXXXXXXXXXXXXXXXXXXXXXXXXXXXXXX.. $$$$$$$",
"$$$$$$$$$$$ .XXXXXXXXXXXXXXXXXXXXXXXXXXXXXXXXXXXXXXXXX.. $$$$$$$",
"$$$$$$$$$$$ XXXX####################################XXXX $$$$$$$",
"$$$$$$$$$$$ XX#######################################XXX $$$$$$$",
"$$$$$$$$$$$ XX#######################################XXX $$$$$$$",
"$$$$$$$$$$$ XX###+++++++++++#++++++++##++++###+++++##XXX $$$$$$$",
"$$$$$$$$$$$ XX###+++++++++++#++++++++##++++###+++++##XXX $$$$$$$",
"$$$$$$$$$$$ XX###+++++++++++#++++++++##++++++++++++##XXX $$$$$$$",
"$$$$$$$$$$$ XX###+++++++++++#++++######++++++++++++##XXX $$$$$$$",
"$$$$$$$$$$$ XX#######+++#####+++++++###+++#+++#++++##XXX $$$$$$$",
"$$$$$$$$$$$ XX#######+++#####++++######+++#+++#++++##XXX $$$$$$$",
"$$$$$$$$$$$ XX#######+++#####++++######+++#+++#++++##XXX $$$$$$$",
"$$$$$$$$$$$ XX#######+++#####++++++++##+++#+++#++++##XXX $$$$$$$",
"$$$$$$$$$$$ XX#######+++#####++++++++##+++#+++#++++##XXX $$$$$$$",
"$$$$$$$$$$$ XX#######################################XXX $$$$$$$",
"$$$$$$$$$$$ XX#######################################XXX $$$$$$$",
"$$$$$$$$$$$ XXXXXXXXXXXXXXXXXXXXXXXXXXXXXXXXXXXXXXXXXXXX $$$$$$$",
"$$$$$$$$$$$ XXXXXXXXXXXXXXXXXXXXXXXXXXXXXXXXXXXXXXXXXXXX $$$$$$$",
"$$$$$$$$$$$ .XXXXXXXXXXXXXXXXXXXXXXXXXXXXXXXXXXXXXXXXX.. $$$$$$$",
"$$$$$$$$$$$$                                            $$$$$$$$"
};
