/* XPM */
static char *_2d6ed23cf994041a3257c752d5c4e11upValVG0tnelBy9N[] = {
/* columns rows colors chars-per-pixel */
"64 64 2 1 ",
"  c black",
". c #84357D",
/* pixels */
"..  ..................  ..................  ..................  ",
"..  ..................  ..................  ..................  ",
"....  ..................  ..................  ..................",
"....  ..................  ..................  ..................",
"....  ..................  ..................  ..................",
"....  ..................  ..................  ..................",
"                                                                ",
"                                                                ",
"............  ..................  ..................  ..........",
"............  ..................  ..................  ..........",
"............  ..................  ..................  ..........",
"............  ..................  ..................  ..........",
"..............  ..................  ..................  ........",
"..............  ..................  ..................  ........",
"..............  ..................  ..................  ........",
"..............  ..................  ..................  ........",
"                                                                ",
"                                                                ",
"..  ..................  ..................  ..................  ",
"..  ..................  ..................  ..................  ",
"..  ..................  ..................  ..................  ",
"..  ..................  ..................  ..................  ",
"....  ..................  ..................  ..................",
"....  ..................  ..................  ..................",
"....  ..................  ..................  ..................",
"....  ..................  ..................  ..................",
"                                                                ",
"                                                                ",
"............  ..................  ..................  ..........",
"............  ..................  ..................  ..........",
"............  ..................  ..................  ..........",
"............  ..................  ..................  ..........",
"..............  ..................  ..................  ........",
"..............  ..................  ..................  ........",
"..............  ..................  ..................  ........",
"..............  ..................  ..................  ........",
"                                                                ",
"                                                                ",
"..  ..................  ..................  ..................  ",
"..  ..................  ..................  ..................  ",
"..  ..................  ..................  ..................  ",
"..  ..................  ..................  ..................  ",
"....  ..................  ..................  ..................",
"....  ..................  ..................  ..................",
"....  ..................  ..................  ..................",
"....  ..................  ..................  ..................",
"                                                                ",
"                                                                ",
"............  ..................  ..................  ..........",
"............  ..................  ..................  ..........",
"............  ..................  ..................  ..........",
"............  ..................  ..................  ..........",
"..............  ..................  ..................  ........",
"..............  ..................  ..................  ........",
"..............  ..................  ..................  ........",
"..............  ..................  ..................  ........",
"                                                                ",
"                                                                ",
"..  ..................  ..................  ..................  ",
"..  ..................  ..................  ..................  ",
"..  ..................  ..................  ..................  ",
"..  ..................  ..................  ..................  ",
"....  ..................  ..................  ..................",
"....  ..................  ..................  .................."
};
