/* XPM */
static char *e771522871454036c576082b648d92d53VVFkX5pNYMVNiCj[] = {
/* columns rows colors chars-per-pixel */
"64 64 2 1 ",
"  c black",
". c #84357D",
/* pixels */
".........  ...................  ...................  ...........",
".........  ...................  ...................  ...........",
".........  ...................  ...................  ...........",
".........  ...................  ...................  ...........",
"...........  ...................  ...................  .........",
"...........  ...................  ...................  .........",
"...........  ...................  ...................  .........",
"...........  ...................  ...................  .........",
"...........  ...................  ...................  .........",
"                                                                ",
"                                                                ",
"...................  ....................  ...................  ",
"...................  ....................  ...................  ",
"...................  ....................  ...................  ",
"...................  ....................  ...................  ",
"  ...................  ....................  ...................",
"  ...................  ....................  ...................",
"  ...................  ....................  ...................",
"  ...................  ....................  ...................",
"                                                                ",
"                                                                ",
".........  ...................  ...................  ...........",
".........  ...................  ...................  ...........",
".........  ...................  ...................  ...........",
".........  ...................  ...................  ...........",
".........  ...................  ...................  ...........",
"...........  ...................  ...................  .........",
"...........  ...................  ...................  .........",
"...........  ...................  ...................  .........",
"...........  ...................  ...................  .........",
"                                                                ",
"                                                                ",
"...................  ....................  ...................  ",
"...................  ....................  ...................  ",
"...................  ....................  ...................  ",
"...................  ....................  ...................  ",
"  ...................  ....................  ...................",
"  ...................  ....................  ...................",
"  ...................  ....................  ...................",
"  ...................  ....................  ...................",
"  ...................  ....................  ...................",
"                                                                ",
"                                                                ",
".........  ...................  ...................  ...........",
".........  ...................  ...................  ...........",
".........  ...................  ...................  ...........",
".........  ...................  ...................  ...........",
"...........  ...................  ...................  .........",
"...........  ...................  ...................  .........",
"...........  ...................  ...................  .........",
"...........  ...................  ...................  .........",
"                                                                ",
"                                                                ",
"...................  ......................  .................  ",
"...................  ......................  .................  ",
"...................  ......................  .................  ",
"...................  ......................  .................  ",
"...................  ......................  .................  ",
"  ...................  ......................  .................",
"  ...................  ......................  .................",
"  ...................  ......................  .................",
"  ...................  ......................  .................",
"                                                                ",
"                                                                "
};
